<svg version="1.1" id="Layer_1" xmlns="http://www.w3.org/2000/svg" xmlns:xlink="http://www.w3.org/1999/xlink" x="0px" y="0px"
	 width="100%" viewBox="0 0 750 750" enable-background="new 0 0 750 750" xml:space="preserve">
<path fill="#000000" opacity="1.000000" stroke="none" 
	d="
M493.000000,751.000000 
	C328.666656,751.000000 164.833328,751.000000 1.000000,751.000000 
	C1.000000,501.000000 1.000000,251.000000 1.000000,1.000000 
	C251.000000,1.000000 501.000000,1.000000 751.000000,1.000000 
	C751.000000,251.000000 751.000000,501.000000 751.000000,751.000000 
	C665.166687,751.000000 579.333313,751.000000 493.000000,751.000000 
M106.445267,440.068054 
	C106.284737,440.365723 106.124207,440.663391 105.444824,441.067810 
	C105.284355,441.365509 105.123886,441.663208 104.399612,442.123138 
	C104.395844,442.388611 104.392067,442.654053 104.388290,442.919525 
	C104.782913,442.805695 105.177528,442.691895 105.972137,442.316711 
	C106.224091,442.112396 106.424263,441.866028 106.975769,441.312866 
	C107.230881,441.107574 107.433411,440.859344 107.971802,440.316345 
	C108.211311,440.115692 108.408020,439.879425 109.104172,439.428070 
	C109.466461,439.018066 109.828751,438.608063 110.742165,438.070404 
	C111.320389,437.595459 111.898605,437.120514 112.980850,436.366272 
	C113.384491,435.977325 113.788132,435.588348 114.725441,435.087708 
	C115.067284,434.972473 115.409126,434.857239 116.270973,435.227844 
	C116.451538,435.381683 116.632111,435.535553 116.373154,436.198273 
	C110.971550,441.527039 104.999886,446.402863 100.313774,452.300171 
	C94.559265,459.542023 91.121452,468.110687 92.346390,477.690979 
	C94.355064,493.400909 101.683960,506.449951 112.990746,517.385010 
	C114.236099,518.589355 115.359848,519.919373 117.463707,522.186523 
	C114.384941,521.699829 112.769905,521.444519 111.154869,521.189209 
	C110.529877,521.904175 109.904884,522.619080 109.279892,523.333984 
	C111.172516,524.358032 113.065132,525.382019 114.416328,526.817627 
	C107.339264,529.219299 100.279991,531.675232 93.178551,534.002502 
	C88.810913,535.433838 87.449654,539.353394 90.495888,542.803589 
	C91.887276,544.379578 93.713875,545.726746 95.594238,546.684692 
	C100.181442,549.021484 104.934174,551.030762 109.586571,553.242676 
	C128.982834,562.464294 148.944550,569.309937 171.169586,568.651550 
	C189.377411,577.872742 208.377747,585.119812 228.174088,589.934875 
	C246.712448,594.443848 265.382599,598.572754 284.176147,601.818909 
	C298.966034,604.373596 314.005188,605.652405 328.983398,606.900146 
	C342.457855,608.022766 356.004639,608.961243 369.511322,608.862366 
	C393.690247,608.685242 417.871552,607.879944 442.034943,606.914062 
	C454.653870,606.409729 467.252411,605.168030 479.832306,603.967712 
	C498.385498,602.197388 515.847656,596.254578 532.647522,588.609924 
	C552.195740,579.714844 571.032532,569.295227 586.803101,554.501221 
	C601.812439,540.421326 617.060913,526.365234 630.305176,510.693787 
	C646.636475,491.369659 659.053162,469.287933 669.116821,445.905792 
	C679.264160,422.329346 685.863953,397.854736 687.787170,372.382324 
	C689.161865,354.173859 688.270569,335.854797 684.022827,317.875977 
	C677.306458,289.448395 663.846680,264.680420 643.894836,243.427353 
	C631.497314,230.221344 617.119141,219.515839 601.672180,210.115204 
	C579.910645,196.871674 557.023254,192.949280 532.484863,200.884872 
	C510.327820,208.050400 491.846466,221.339645 475.545013,237.288727 
	C456.505127,255.916962 438.841980,275.944641 420.297668,295.090210 
	C410.489838,305.216003 400.331390,315.037567 389.863373,324.477661 
	C381.101501,332.379150 370.693909,337.611053 358.720184,339.442657 
	C355.969360,331.982452 357.514557,329.057770 362.618347,323.599823 
	C368.881622,316.901886 375.132507,309.696991 379.300537,301.632111 
	C389.965942,280.995087 389.595306,258.727234 386.189606,236.390839 
	C385.224945,230.064148 383.675476,223.826614 382.354645,217.354309 
	C393.767151,213.987427 399.262695,205.664032 401.922333,195.069427 
	C406.199341,178.032349 396.829742,156.583359 381.517670,147.818542 
	C367.368439,139.719376 353.414948,139.499207 339.782867,148.897324 
	C330.319916,155.421158 325.114136,164.456467 324.776093,175.411560 
	C315.051697,174.611893 305.532898,173.200775 296.010406,173.175537 
	C275.548340,173.121307 258.381683,180.668518 246.122620,197.554291 
	C237.554840,209.355621 233.853470,222.465958 236.998749,237.837189 
	C237.010574,238.869553 237.022400,239.901917 236.684326,241.528046 
	C227.476456,251.692963 229.153641,268.193451 238.238754,279.539398 
	C242.660660,285.061707 246.783493,290.603546 247.807434,297.802094 
	C251.500916,323.768555 276.306091,343.277832 301.930481,343.085358 
	C304.087372,343.069153 307.283783,344.334503 308.197906,345.994995 
	C309.840210,348.978363 310.116272,352.713837 310.222656,356.255188 
	C302.524231,358.526398 294.825806,360.797607 286.495697,362.773956 
	C280.660492,355.295166 272.803925,351.613892 263.530640,352.180359 
	C253.971924,352.764252 244.479187,354.410461 234.953644,355.559296 
	C223.814957,356.902679 212.672028,358.210938 201.103088,359.585266 
	C200.664352,357.218262 200.456558,355.264191 199.926468,353.401855 
	C198.620010,348.811890 197.853485,343.886627 195.605820,339.789612 
	C192.407898,333.960571 186.744659,331.339661 179.989899,332.130035 
	C174.980591,332.716187 172.015701,336.515045 171.497879,340.820587 
	C170.492096,349.183655 169.966675,357.718201 170.427948,366.116577 
	C171.070999,377.824463 172.801743,389.472595 173.702179,401.777649 
	C159.530991,408.509888 145.334259,415.189575 131.222290,422.043762 
	C129.540405,422.860687 128.320419,424.628632 126.954697,426.005035 
	C126.954697,426.005035 126.930702,425.925842 126.344666,425.330048 
	C121.975777,428.352112 117.606880,431.374176 112.837227,434.734985 
	C112.546608,435.143646 112.255989,435.552277 111.306038,435.997131 
	C110.617363,436.463379 109.928688,436.929626 108.838303,437.735565 
	C108.546150,438.145508 108.253998,438.555481 107.443657,439.069946 
	C107.283859,439.367188 107.124062,439.664459 106.445267,440.068054 
M142.524063,389.542053 
	C144.048111,398.739960 148.219009,401.913666 157.552368,400.977203 
	C162.002701,400.530701 164.278992,398.577118 164.070419,394.884735 
	C162.590073,395.475922 161.225861,395.960266 159.912155,396.555969 
	C154.560074,398.982941 150.051239,398.709503 147.834595,393.845917 
	C146.142639,390.133636 146.352554,384.839020 147.505005,380.752716 
	C148.596588,376.882141 155.190201,375.305969 159.182846,376.359192 
	C160.166260,376.618591 161.428757,375.820068 162.562958,375.507874 
	C162.180389,374.347565 161.937836,372.266266 161.391495,372.183197 
	C158.745071,371.780853 155.864792,371.346497 153.360352,372.017273 
	C150.802017,372.702454 148.584183,374.658966 146.203659,376.066986 
	C142.351257,371.821228 138.757004,367.859955 135.130341,363.862976 
	C134.186066,364.738861 133.644897,365.003601 133.501404,365.409088 
	C130.808655,373.017578 128.063538,380.611450 125.639511,388.306061 
	C125.351837,389.219238 126.652359,391.514404 127.596649,391.771118 
	C130.602478,392.588135 133.858261,392.464691 136.886246,393.226318 
	C140.824600,394.216949 142.193375,392.711578 142.000000,389.000000 
	C142.000000,389.000000 142.004028,388.996338 142.524063,389.542053 
M219.239197,328.240082 
	C215.464447,308.846985 207.821732,291.853058 190.501297,280.532410 
	C188.434860,279.181763 186.947281,276.314667 186.111496,273.839722 
	C184.214691,268.222931 183.567368,262.112030 181.183746,256.747864 
	C177.135544,247.637589 171.956131,239.037598 167.594864,230.056702 
	C163.280136,221.171661 161.748093,211.803787 163.799637,201.949753 
	C167.688110,183.272552 178.694962,169.319565 192.914566,157.409637 
	C196.550720,154.364090 199.993622,151.087799 203.997925,147.493240 
	C202.717468,147.337997 202.196167,147.117493 201.806046,147.258896 
	C200.875290,147.596313 199.923706,147.988922 199.124832,148.560806 
	C183.950912,159.423431 171.959167,172.963043 164.888794,190.395859 
	C161.385910,199.032578 158.933319,207.789642 160.741821,217.527466 
	C162.588577,227.471313 167.451279,235.888168 172.043106,244.530182 
	C176.879135,253.631790 182.111542,262.526306 183.584106,273.026245 
	C184.080444,276.565247 183.780624,277.719818 179.621170,277.258209 
	C171.814499,276.391846 163.945175,276.923981 156.774963,280.665161 
	C148.106598,285.188049 146.250015,294.645386 152.380905,302.001740 
	C158.125534,308.894592 169.315125,308.999634 176.983810,302.584137 
	C183.296616,297.302948 185.204819,290.064087 186.627213,281.915619 
	C188.790955,283.037994 190.766830,283.635468 192.193832,284.868256 
	C209.109283,299.481750 216.668106,318.267944 216.781235,340.369232 
	C216.787064,341.507507 217.750824,342.640869 218.268600,343.776520 
	C219.166672,342.805145 220.861237,341.802338 220.824356,340.867859 
	C220.668411,336.915741 219.997330,332.983917 219.239197,328.240082 
z"/>
<path fill="#64FCD9" opacity="1.000000" stroke="none" 
	d="
M359.054688,340.137024 
	C370.693909,337.611053 381.101501,332.379150 389.863373,324.477661 
	C400.331390,315.037567 410.489838,305.216003 420.297668,295.090210 
	C438.841980,275.944641 456.505127,255.916962 475.545013,237.288727 
	C491.846466,221.339645 510.327820,208.050400 532.484863,200.884872 
	C557.023254,192.949280 579.910645,196.871674 601.672180,210.115204 
	C617.119141,219.515839 631.497314,230.221344 643.894836,243.427353 
	C663.846680,264.680420 677.306458,289.448395 684.022827,317.875977 
	C688.270569,335.854797 689.161865,354.173859 687.787170,372.382324 
	C685.863953,397.854736 679.264160,422.329346 669.116821,445.905792 
	C659.053162,469.287933 646.636475,491.369659 630.305176,510.693787 
	C617.060913,526.365234 601.812439,540.421326 586.803101,554.501221 
	C571.032532,569.295227 552.195740,579.714844 532.647522,588.609924 
	C515.847656,596.254578 498.385498,602.197388 479.832306,603.967712 
	C467.252411,605.168030 454.653870,606.409729 442.034943,606.914062 
	C417.871552,607.879944 393.690247,608.685242 369.511322,608.862366 
	C356.004639,608.961243 342.457855,608.022766 328.983398,606.900146 
	C314.005188,605.652405 298.966034,604.373596 284.176147,601.818909 
	C265.382599,598.572754 246.712448,594.443848 228.174088,589.934875 
	C208.377747,585.119812 189.377411,577.872742 171.355591,568.165527 
	C172.932755,567.429504 174.323898,567.179443 176.069489,566.934326 
	C177.275589,566.581055 178.127258,566.222778 179.405304,565.969482 
	C181.153748,566.016235 182.527634,566.172668 183.790161,565.867859 
	C205.153442,560.709717 224.332687,550.419617 243.494949,540.154297 
	C245.104202,539.292175 246.838562,536.780579 246.733002,535.150757 
	C246.635025,533.637939 244.398819,531.740356 242.674225,530.949158 
	C236.153168,527.957214 229.457230,525.346375 222.826752,522.592957 
	C222.785995,522.093140 222.745239,521.593323 222.704483,521.093445 
	C228.160172,519.412537 233.531067,517.330688 239.093491,516.154541 
	C245.706360,514.756409 251.202835,516.891663 255.998611,522.101135 
	C259.532043,525.939392 263.974915,529.237488 268.575104,531.743652 
	C285.579529,541.007690 303.603668,547.788086 322.589050,551.694214 
	C344.664581,556.235962 366.234741,554.993896 385.093842,541.472168 
	C419.010315,517.154480 436.275513,483.168823 438.424622,441.946838 
	C440.554901,401.085785 413.982849,361.328827 375.608673,351.798370 
	C368.895477,350.131073 362.427948,347.057983 359.054688,340.137024 
M587.214783,398.342560 
	C586.670715,395.406555 586.312012,392.417786 585.498352,389.558472 
	C585.133606,388.276794 583.857666,387.254395 582.995300,386.114319 
	C581.945129,386.973389 580.562439,387.632446 579.903809,388.727142 
	C577.402710,392.883942 573.866028,394.628540 569.066467,394.384064 
	C567.803772,394.319733 566.495544,395.149750 565.208252,395.569122 
	C565.713928,396.882111 565.886108,398.517670 566.786682,399.448822 
	C569.724548,402.486603 570.064758,405.212219 567.231995,408.629425 
	C566.205872,409.867218 566.434326,412.144989 566.090332,413.948212 
	C567.731323,413.904694 569.500793,414.246948 570.991089,413.750763 
	C577.352661,411.632721 579.478699,412.206146 583.491150,417.117554 
	C584.365662,418.188080 585.995361,418.641663 588.014160,419.803345 
	C588.014160,417.089355 588.213074,415.732819 587.976990,414.456757 
	C587.259521,410.578857 587.922668,408.108582 592.628601,407.679749 
	C594.857910,407.476532 596.953064,405.800751 599.109009,404.792145 
	C599.132141,404.282867 599.155273,403.773621 599.178406,403.264343 
	C595.643555,402.130371 592.108765,400.996368 588.235535,399.558868 
	C588.001587,399.357239 587.731567,399.236206 587.214783,398.342560 
M452.004700,339.904724 
	C452.173767,340.122345 452.342834,340.339996 452.160614,341.154144 
	C452.297913,341.721680 452.435211,342.289185 452.572510,342.856720 
	C456.485596,339.908295 460.398682,336.959869 464.311768,334.011444 
	C464.011749,333.542725 463.711731,333.074005 463.411743,332.605286 
	C460.390106,333.272980 457.379028,333.993591 454.344818,334.598022 
	C446.774323,336.105988 445.320862,335.425476 441.342651,328.923584 
	C439.833557,326.457184 438.189972,324.073120 436.607666,321.651520 
	C436.162354,321.714844 435.717041,321.778168 435.271729,321.841522 
	C434.502411,325.809174 434.082581,329.891754 432.830566,333.700714 
	C432.097900,335.929626 430.421356,338.335876 428.475555,339.553192 
	C426.119202,341.027344 421.688660,340.536560 422.318054,344.454285 
	C422.569946,346.022339 426.459961,347.670349 428.897064,348.083435 
	C433.838013,348.920868 434.472076,351.769135 433.898315,355.879272 
	C433.530884,358.511536 433.487213,361.188965 433.298370,363.846161 
	C433.868500,364.093842 434.438629,364.341522 435.008759,364.589203 
	C436.691162,362.971375 438.676788,361.566589 439.993805,359.692017 
	C442.863708,355.607025 446.261322,354.233093 451.156647,355.804810 
	C453.887726,356.681671 456.915161,356.635498 459.809052,357.005249 
	C459.968262,356.483124 460.127472,355.960968 460.286682,355.438812 
	C457.505402,351.978241 454.724152,348.517670 451.942871,345.057098 
	C451.549133,345.318451 451.155426,345.579773 450.761688,345.841125 
	C451.825836,348.195831 452.889984,350.550537 454.230316,353.516327 
	C450.135651,352.351349 446.341705,349.959381 443.753845,350.896790 
	C441.047272,351.877258 439.500275,356.058777 437.376404,358.935913 
	C437.376404,354.757050 438.828094,349.737732 436.948517,347.035614 
	C435.233612,344.570190 429.908630,344.615906 425.920380,343.482605 
	C429.336182,342.164734 433.568024,341.762970 435.486633,339.445801 
	C437.407928,337.125488 437.018799,332.892090 437.745331,328.936676 
	C439.397583,331.261627 441.158051,333.216461 442.314270,335.480011 
	C444.395874,339.555115 447.264771,340.995728 452.004700,339.904724 
M430.094788,524.821838 
	C410.921661,531.504089 397.389435,545.229736 385.478516,560.864380 
	C384.509216,562.136719 385.063477,564.569702 384.909790,566.463379 
	C386.279633,565.416199 388.153687,564.656067 388.939240,563.276306 
	C395.044098,552.554077 402.845978,543.319336 413.102295,536.476624 
	C419.029816,532.521973 425.552032,529.458618 432.404572,525.662903 
	C432.706635,532.132751 434.236450,536.305786 439.202240,538.408020 
	C444.151398,540.503235 450.854004,537.926392 452.713470,533.212524 
	C454.293884,529.205933 451.359985,524.865540 445.691833,522.981140 
	C443.882812,522.379700 441.993195,522.020691 438.573364,521.153259 
	C444.097656,516.600098 448.411499,512.215820 453.474518,509.017334 
	C473.746979,496.210632 496.085724,488.492188 519.305176,482.972565 
	C526.174438,481.339630 532.826782,478.793762 539.578491,476.666260 
	C539.375244,476.028748 539.172058,475.391235 538.968811,474.753723 
	C521.060242,480.158813 502.922638,484.916412 485.306244,491.147644 
	C466.998566,497.623352 449.076874,505.296722 436.118835,520.938843 
	C434.807098,522.522217 432.589996,523.355713 430.094788,524.821838 
M320.437561,558.056091 
	C316.097015,553.015503 314.999268,553.057007 312.316986,558.971863 
	C310.848724,562.209656 309.503387,562.602356 306.260620,560.814087 
	C303.076752,559.058289 299.140594,557.535706 295.632263,557.724731 
	C287.211731,558.178162 280.988525,566.246887 281.975861,574.207947 
	C282.974701,582.261719 290.202698,587.452576 299.545227,586.575684 
	C311.093079,585.491821 322.630249,584.281250 334.153595,582.963989 
	C335.794739,582.776428 338.200653,582.041748 338.673431,580.903992 
	C339.147461,579.763245 338.013458,577.480530 336.946167,576.253235 
	C331.727325,570.251892 326.295227,564.435974 320.437561,558.056091 
M456.580780,284.998352 
	C474.569183,275.340759 492.557587,265.683136 510.545959,256.025513 
	C457.749054,273.564972 417.433563,309.384705 376.897003,346.728760 
	C378.693848,346.860962 379.563751,347.201569 379.919006,346.911652 
	C405.183105,326.289307 428.151520,302.838257 456.580780,284.998352 
M261.025391,573.399292 
	C264.340302,573.617615 267.659637,574.028137 270.967773,573.951721 
	C272.148163,573.924500 273.301361,572.717773 274.466949,572.049377 
	C273.288116,571.609131 272.129181,570.872742 270.926270,570.792053 
	C268.618469,570.637146 266.232758,571.202942 263.972168,570.859253 
	C251.493927,568.961914 238.994812,567.128967 226.616623,564.695312 
	C223.328964,564.048889 220.483902,561.283264 217.350723,559.653931 
	C216.111237,559.009399 214.640350,558.809814 213.274857,558.407654 
	C213.292908,559.950500 212.701904,562.008667 213.470215,562.916748 
	C214.654755,564.316711 216.673309,565.449280 218.506882,565.791992 
	C232.362946,568.381042 246.260239,570.749634 261.025391,573.399292 
M478.383362,442.146759 
	C485.912292,446.787109 491.823151,445.679901 492.831299,438.998352 
	C493.224182,436.394257 492.015289,432.802338 490.247498,430.795380 
	C487.672607,427.872162 483.998749,425.757446 479.568817,427.459686 
	C474.167145,429.535248 473.206543,437.242584 478.383362,442.146759 
M486.561310,381.736664 
	C486.082062,381.861816 485.388611,381.827759 485.158203,382.137817 
	C483.637054,384.184509 482.215454,386.305176 480.761444,388.401733 
	C483.046875,389.065186 485.299469,390.101624 487.625275,390.306427 
	C491.288055,390.628967 495.000061,390.392151 498.979645,390.392151 
	C499.589020,389.541382 500.652893,388.056091 501.740265,386.537994 
	C498.798004,381.502411 495.007446,380.154663 486.561310,381.736664 
M514.247986,369.144135 
	C512.000793,366.147217 508.931244,366.006958 506.501404,368.158325 
	C503.966583,370.402588 502.139709,373.490875 500.275635,376.385498 
	C500.070557,376.704010 501.498657,378.765076 502.435669,379.013672 
	C507.666504,380.401184 514.088928,375.409607 514.247986,369.144135 
z"/>
<path fill="#12271C" opacity="1.000000" stroke="none" 
	d="
M175.715057,566.929443 
	C174.323898,567.179443 172.932755,567.429504 171.208557,567.829224 
	C148.944550,569.309937 128.982834,562.464294 109.586571,553.242676 
	C104.934174,551.030762 100.181442,549.021484 95.594238,546.684692 
	C93.713875,545.726746 91.887276,544.379578 90.495888,542.803589 
	C87.449654,539.353394 88.810913,535.433838 93.178551,534.002502 
	C100.279991,531.675232 107.339264,529.219299 115.081268,526.622681 
	C130.850281,520.575989 144.666962,512.439270 157.873413,503.121918 
	C160.661316,501.155029 160.933350,499.060394 160.952301,496.072601 
	C160.999435,488.648315 161.333405,481.215240 161.882904,473.810242 
	C162.089325,471.028687 162.114685,466.661804 166.024673,467.289246 
	C168.010742,467.607971 169.405746,471.758545 170.997421,474.222382 
	C171.231354,474.584534 171.024048,475.207916 171.103943,475.696869 
	C172.427109,483.794708 173.763580,491.890381 175.090485,499.946594 
	C192.648132,497.792603 211.156387,490.596313 220.601852,482.375549 
	C214.880920,477.825012 209.031876,473.462341 203.512451,468.716370 
	C194.596008,461.049530 185.283051,453.703979 177.284622,445.150177 
	C169.869080,437.219757 171.266006,427.232056 179.472961,419.865875 
	C180.237198,417.868988 180.998398,415.964172 180.950226,414.080048 
	C180.552002,398.506378 180.074615,382.933746 179.457687,367.367279 
	C179.274582,362.746643 178.567917,358.146973 178.107559,353.537018 
	C177.668518,349.140778 177.237823,344.743713 176.803452,340.347015 
	C173.712296,353.805115 173.571365,367.265564 174.724579,380.784454 
	C175.497116,389.840698 176.141464,398.907867 176.516495,407.828064 
	C175.482208,405.506104 174.774597,403.326202 174.066986,401.146301 
	C172.801743,389.472595 171.070999,377.824463 170.427948,366.116577 
	C169.966675,357.718201 170.492096,349.183655 171.497879,340.820587 
	C172.015701,336.515045 174.980591,332.716187 179.989899,332.130035 
	C186.744659,331.339661 192.407898,333.960571 195.605820,339.789612 
	C197.853485,343.886627 198.620010,348.811890 199.926468,353.401855 
	C200.456558,355.264191 200.664352,357.218262 201.103088,359.585266 
	C212.672028,358.210938 223.814957,356.902679 234.953644,355.559296 
	C244.479187,354.410461 253.971924,352.764252 263.530640,352.180359 
	C272.803925,351.613892 280.660492,355.295166 286.773132,363.294617 
	C288.006866,366.170441 288.963135,368.525574 290.033844,371.162506 
	C295.324921,369.433807 300.332825,367.797638 305.279816,366.516968 
	C302.121277,374.216461 304.779236,381.305450 312.188660,384.380798 
	C315.095459,385.455597 317.746826,386.532227 320.497253,386.939148 
	C348.181793,391.035217 368.262634,377.420013 386.083954,358.451996 
	C380.231110,356.301453 374.298859,354.248138 368.464874,351.945831 
	C361.300446,349.118591 355.333649,344.958130 353.305359,336.495789 
	C353.690430,331.647186 354.037109,327.220612 354.472015,321.667328 
	C342.446106,331.119232 330.725677,337.803192 317.354218,341.272797 
	C314.604492,341.986298 313.581573,343.713379 314.065765,346.455963 
	C314.410706,348.409515 314.926666,350.363068 314.995483,352.329590 
	C315.232971,359.115723 312.482574,363.088806 307.010223,363.775024 
	C308.304413,360.993134 309.633820,358.564117 310.963196,356.135071 
	C310.116272,352.713837 309.840210,348.978363 308.197906,345.994995 
	C307.283783,344.334503 304.087372,343.069153 301.930481,343.085358 
	C276.306091,343.277832 251.500916,323.768555 247.807434,297.802094 
	C246.783493,290.603546 242.660660,285.061707 238.238754,279.539398 
	C229.153641,268.193451 227.476456,251.692963 237.202805,241.212555 
	C246.877411,230.550674 265.021027,235.027328 267.154633,250.627289 
	C271.372162,251.107651 275.550201,251.583527 279.746155,252.061447 
	C279.551483,239.719833 291.169128,235.268829 299.022888,238.339905 
	C304.815338,240.604980 310.128357,244.138062 315.560028,247.270782 
	C320.192291,249.942444 324.689270,252.848648 329.821991,256.005310 
	C330.771790,252.749100 331.473785,250.568024 332.039703,248.352188 
	C333.013336,244.539993 331.949860,240.109879 328.512878,239.624481 
	C322.918213,238.834335 322.378296,234.638306 320.267670,231.265305 
	C318.512543,228.460480 316.517975,225.801422 314.839294,222.954102 
	C313.406616,220.524048 311.699005,220.483017 309.432831,221.611053 
	C305.933441,223.352966 302.364197,224.954590 298.417786,226.806625 
	C297.199371,223.519562 296.211182,220.853577 295.443817,218.783401 
	C285.904755,222.436325 276.571503,226.010452 266.654816,229.807983 
	C266.849274,226.475693 266.976685,224.292725 267.133514,221.605331 
	C256.741333,226.942688 246.888367,232.003113 237.035416,237.063507 
	C233.853470,222.465958 237.554840,209.355621 246.122620,197.554291 
	C258.381683,180.668518 275.548340,173.121307 296.010406,173.175537 
	C305.532898,173.200775 315.051697,174.611893 324.776093,175.411560 
	C325.114136,164.456467 330.319916,155.421158 339.782867,148.897324 
	C353.414948,139.499207 367.368439,139.719376 381.517670,147.818542 
	C396.829742,156.583359 406.199341,178.032349 401.922333,195.069427 
	C399.262695,205.664032 393.767151,213.987427 382.354645,217.354309 
	C383.675476,223.826614 385.224945,230.064148 386.189606,236.390839 
	C389.595306,258.727234 389.965942,280.995087 379.300537,301.632111 
	C375.132507,309.696991 368.881622,316.901886 362.618347,323.599823 
	C357.514557,329.057770 355.969360,331.982452 358.887451,339.789856 
	C362.427948,347.057983 368.895477,350.131073 375.608673,351.798370 
	C413.982849,361.328827 440.554901,401.085785 438.424622,441.946838 
	C436.275513,483.168823 419.010315,517.154480 385.093842,541.472168 
	C366.234741,554.993896 344.664581,556.235962 322.589050,551.694214 
	C303.603668,547.788086 285.579529,541.007690 268.575104,531.743652 
	C263.974915,529.237488 259.532043,525.939392 255.998611,522.101135 
	C251.202835,516.891663 245.706360,514.756409 239.093491,516.154541 
	C233.531067,517.330688 228.160172,519.412537 222.704483,521.093445 
	C222.745239,521.593323 222.785995,522.093140 222.826752,522.592957 
	C229.457230,525.346375 236.153168,527.957214 242.674225,530.949158 
	C244.398819,531.740356 246.635025,533.637939 246.733002,535.150757 
	C246.838562,536.780579 245.104202,539.292175 243.494949,540.154297 
	C224.332687,550.419617 205.153442,560.709717 183.790161,565.867859 
	C182.527634,566.172668 181.153748,566.016235 179.543365,565.636230 
	C181.620773,564.456421 184.018219,563.802490 186.347229,562.959473 
	C204.870651,556.255249 223.539230,549.852966 240.112656,538.831726 
	C241.475250,537.925659 242.287109,536.191345 243.354858,534.841858 
	C242.044632,534.045105 240.816360,533.039551 239.410065,532.487488 
	C233.103607,530.011902 226.351135,528.353271 220.552277,525.020508 
	C216.931198,522.939453 214.253693,522.586243 211.313309,524.760559 
	C206.807205,528.092651 202.820984,532.158569 198.185608,535.275818 
	C194.157364,537.984680 189.710709,540.956726 185.119125,541.660645 
	C181.491577,542.216614 177.363068,539.504578 173.360733,538.212769 
	C171.692688,542.287903 170.913849,542.318298 166.435303,537.689758 
	C160.130325,541.046814 159.377380,540.857117 154.851181,535.434875 
	C154.046341,534.470642 152.807678,533.340332 151.690994,533.249451 
	C143.861588,532.612183 139.909866,528.091064 138.938461,519.864624 
	C122.724396,526.335449 107.164383,532.545227 91.604370,538.755066 
	C91.566101,539.507385 91.527832,540.259766 91.489563,541.012085 
	C94.586357,542.550354 97.579262,544.363647 100.797821,545.579651 
	C115.315331,551.064453 129.688004,557.078613 144.527832,561.513428 
	C154.566544,564.513489 165.295074,565.205261 175.715057,566.929443 
M268.163513,262.216827 
	C267.756683,266.662720 267.349823,271.108612 267.036804,275.549255 
	C267.036804,275.549255 267.028198,275.455688 266.325897,274.938782 
	C262.423828,281.604706 256.993713,285.865417 248.478302,285.619598 
	C249.083420,292.586670 249.277039,299.173950 253.907059,304.561218 
	C253.907059,304.561218 253.926392,304.484467 254.004486,304.498444 
	C254.004486,304.498444 254.018829,304.420410 253.152573,304.437866 
	C253.443283,305.150879 253.734009,305.863861 253.942078,307.078583 
	C254.133759,307.705109 254.325439,308.331635 254.910660,309.608093 
	C255.274475,309.761261 255.638275,309.914429 255.993591,310.003448 
	C255.993591,310.003448 255.945557,310.046936 255.556259,310.704681 
	C265.577362,329.235474 280.467163,340.119324 302.153961,339.936157 
	C322.482117,339.764496 338.920074,330.053772 354.479828,318.216125 
	C360.546143,313.600983 361.455780,307.618835 359.610718,300.885773 
	C357.852936,294.471222 353.683655,289.890747 347.853546,286.741730 
	C346.798645,286.171936 345.942902,285.233337 344.995209,284.465057 
	C345.977753,283.738831 346.865295,282.787781 347.959381,282.325653 
	C352.465759,280.422058 355.493988,274.333923 354.821320,268.226227 
	C354.194214,262.531616 350.923035,258.381073 345.518585,258.208282 
	C338.431488,257.981689 331.296600,258.556671 324.214752,259.164948 
	C320.919586,259.447998 319.527222,261.626678 318.826904,265.202454 
	C317.931122,269.775879 316.208710,274.494049 313.657349,278.369629 
	C309.021820,285.410950 299.116058,288.227295 291.505280,285.608154 
	C283.679260,282.914917 280.024017,277.067261 279.930054,267.382599 
	C279.909485,265.261414 280.141144,262.540222 278.983765,261.172485 
	C277.382141,259.279755 274.679840,257.985016 272.215668,257.372711 
	C271.536713,257.204010 270.027954,260.375031 268.986542,262.006775 
	C268.986542,262.006775 268.972961,261.920990 268.163513,262.216827 
M343.334229,182.496643 
	C342.761749,182.688660 342.189270,182.880676 341.085754,183.996582 
	C345.025970,186.413300 349.115784,188.625183 352.836609,191.342331 
	C354.442078,192.514725 355.284302,194.732208 356.473236,196.474930 
	C355.977783,196.945770 355.482330,197.416611 354.986877,197.887466 
	C345.674866,189.359985 334.232239,185.187943 322.849579,180.619308 
	C298.129578,170.697479 257.137970,177.595825 242.830521,209.077011 
	C239.784241,215.779846 237.175461,222.399750 240.276733,231.041092 
	C246.721222,228.400787 253.051971,226.407867 258.790070,223.315338 
	C267.384369,218.683487 275.529083,213.222824 283.949188,208.257370 
	C285.393707,207.405502 287.257080,207.263931 289.546600,206.619949 
	C283.774109,213.878464 271.225647,212.779892 271.520172,225.458572 
	C273.333344,224.914032 274.860992,224.513687 276.349091,223.998917 
	C286.985168,220.319687 296.346222,214.473419 304.983215,207.328842 
	C306.461792,206.105743 308.486206,205.542435 310.258453,204.674347 
	C299.666626,214.009995 297.985413,217.034958 301.141693,223.479797 
	C307.864563,219.525482 314.521851,215.505371 321.298798,211.698349 
	C322.956909,210.766891 325.006836,210.532974 326.876617,209.978363 
	C327.035339,210.546448 327.194061,211.114532 327.352783,211.682617 
	C325.825043,212.187668 324.268188,212.619339 322.774811,213.211151 
	C317.722809,215.213150 316.553864,218.733871 319.242645,223.386322 
	C321.117889,226.631088 322.872375,229.945648 324.720001,233.300262 
	C329.354950,230.995071 331.877960,233.450607 332.757812,237.518600 
	C333.919067,242.887482 334.378998,248.408066 335.221039,254.441223 
	C337.949371,254.595352 341.228790,254.913101 344.510712,254.941223 
	C354.426666,255.026169 360.291779,261.799103 358.241730,271.623383 
	C357.281769,276.223663 355.136810,280.576660 353.456635,285.242554 
	C360.712250,291.542389 363.810425,300.001312 363.697998,308.736603 
	C366.070129,309.493805 367.956635,310.096008 370.212067,310.815979 
	C370.216644,310.810242 370.668884,310.341553 371.011749,309.803192 
	C382.611877,291.588318 386.406708,271.388000 385.282135,250.230408 
	C384.612366,237.629959 383.221008,224.919800 372.571472,214.794312 
	C375.660736,214.104355 378.167938,213.149796 380.708069,213.052231 
	C387.871765,212.777130 392.622314,208.980682 395.443420,202.886414 
	C401.944336,188.842773 401.166412,174.899643 392.317139,162.256866 
	C383.552063,149.734329 370.806091,144.398560 355.576965,145.904495 
	C341.485046,147.297989 332.442474,154.616638 329.623047,166.675262 
	C329.114441,168.850418 329.187958,172.361801 330.516022,173.541718 
	C334.535431,177.112732 339.303406,179.841141 343.334229,182.496643 
M254.914276,474.554077 
	C255.494431,475.151428 256.094910,475.730438 256.651825,476.348724 
	C275.860138,497.673370 298.645111,510.919342 328.511017,509.018433 
	C352.946381,507.463226 376.826477,489.909576 383.323517,466.475525 
	C385.088959,460.107697 388.521851,458.425262 393.324036,456.840759 
	C406.483246,452.498779 418.052551,455.865295 428.327911,464.413391 
	C429.067993,463.203308 429.717621,462.141144 430.672546,460.579742 
	C431.841248,462.994659 432.334412,464.013672 433.310669,466.030945 
	C433.699280,464.366638 433.940643,463.812408 433.941711,463.257751 
	C433.964233,451.300323 434.396545,439.321899 433.823975,427.391968 
	C433.358307,417.689880 432.606964,407.837677 427.747253,398.988739 
	C421.164520,387.002197 411.789215,377.504089 401.503632,368.642761 
	C393.589691,361.824646 388.273224,360.060699 378.273743,369.571167 
	C367.943176,379.396454 356.256226,386.631531 342.187286,389.464264 
	C320.395874,393.851898 305.271576,388.685089 298.592163,372.821503 
	C290.994873,374.544708 289.089691,376.868164 289.023499,384.163055 
	C288.911835,396.468658 288.813202,408.775574 288.537628,421.078064 
	C288.388947,427.715454 288.016541,434.355103 287.504395,440.975067 
	C286.966217,447.930847 285.039856,449.632874 278.118530,449.557465 
	C265.732269,449.422516 254.225494,452.694885 242.698975,458.409668 
	C246.715256,463.765930 250.567139,468.902924 254.914276,474.554077 
M206.564499,428.920105 
	C203.369675,426.852386 200.345123,424.431549 196.944077,422.791473 
	C190.159393,419.519684 182.121002,420.694977 178.531036,425.032776 
	C174.763687,429.584900 174.572937,436.809875 179.785446,442.988220 
	C185.590820,449.869324 191.842453,456.914978 199.282043,461.771667 
	C219.167053,474.753021 236.215698,490.244568 249.059479,510.330505 
	C251.602631,514.307678 254.712082,518.380432 258.524414,521.012939 
	C280.663116,536.300598 305.051666,546.378235 331.803070,549.864136 
	C350.998138,552.365417 369.226593,548.965759 385.410065,537.696411 
	C407.053223,522.625305 419.302307,500.861084 427.899139,476.709808 
	C428.677277,474.523743 427.675110,470.976135 426.278046,468.871857 
	C420.770172,460.575745 412.637421,457.058960 402.804779,458.091003 
	C393.865112,459.029327 387.024689,463.659912 383.785126,472.086609 
	C372.532471,501.357056 341.680328,517.107727 309.635742,511.400848 
	C287.114105,507.389893 268.940735,495.686218 254.173523,478.619507 
	C248.886581,472.509338 244.235687,465.771698 239.897354,458.937744 
	C234.673737,450.709320 235.938400,444.491913 243.204803,438.012787 
	C244.068588,437.242554 245.283096,436.465454 245.521500,435.492249 
	C245.841782,434.184692 245.735336,432.478271 245.098236,431.343933 
	C244.732193,430.692169 242.932129,430.580536 241.819595,430.682770 
	C240.528671,430.801361 239.301941,431.494568 238.016052,431.811188 
	C227.449371,434.413208 216.890900,436.785309 206.564499,428.920105 
M280.133087,446.088654 
	C284.010620,445.696655 284.207092,442.664429 284.393524,439.854950 
	C284.986023,430.925598 285.734192,421.991943 285.882874,413.050995 
	C286.129395,398.228210 286.026337,383.397888 285.911072,368.571991 
	C285.881500,364.767731 284.107513,362.808807 279.807465,363.975403 
	C276.632629,364.836761 273.286072,365.495636 270.015015,365.500000 
	C252.285233,365.523590 235.520050,369.017517 219.779907,377.568359 
	C208.192627,383.863190 196.310089,384.000519 184.731613,376.988190 
	C184.266586,376.706543 183.576447,376.796570 182.786148,376.684296 
	C181.350876,389.594543 181.688187,402.146881 184.122757,414.606750 
	C184.371979,415.882141 185.902161,418.017242 186.600922,417.926575 
	C195.571976,416.762665 202.209991,421.634705 208.885727,426.273621 
	C216.033478,431.240570 223.716782,432.557068 232.061295,430.408936 
	C234.944214,429.666809 237.768280,428.301117 240.669876,428.141571 
	C243.370438,427.993103 246.138382,429.070038 248.876663,429.607483 
	C248.125046,432.626678 247.610214,435.736145 246.509964,438.622467 
	C246.043640,439.845764 244.241867,440.501434 243.230652,441.586243 
	C239.742920,445.327820 238.833435,449.493164 240.514984,452.799164 
	C253.914062,450.580841 266.602844,448.480103 280.133087,446.088654 
M218.432617,488.866699 
	C206.003677,495.680328 192.956390,500.732788 178.917267,503.146942 
	C177.432693,503.402191 175.076248,505.042664 175.024384,506.131042 
	C174.676605,513.429321 174.843521,520.752075 174.843521,528.066956 
	C175.321655,528.115051 175.799774,528.163208 176.277908,528.211365 
	C176.975357,527.338623 177.551346,526.316162 178.399063,525.628784 
	C179.628632,524.631714 181.013031,523.789062 182.441650,523.113892 
	C182.654495,523.013306 184.032639,524.510376 183.913803,524.716797 
	C183.146713,526.049011 181.980743,527.149658 181.199097,528.475647 
	C180.059082,530.409546 177.788834,533.237183 178.402512,534.311096 
	C179.580154,536.371887 182.644730,538.909912 184.566895,538.644592 
	C187.891510,538.185730 191.689636,536.440979 193.975403,534.003662 
	C202.985901,524.395630 213.893494,519.022949 226.715805,516.559631 
	C232.548172,515.439209 238.083969,512.775085 244.894699,510.416168 
	C239.543243,503.103394 235.634323,496.682312 230.597733,491.320526 
	C227.955460,488.507690 223.670120,486.128754 218.432617,488.866699 
M196.486755,354.255188 
	C195.235519,349.821106 194.509308,345.144196 192.599533,341.014679 
	C190.237839,335.907898 185.625916,334.679779 179.371750,336.875641 
	C181.296707,347.281189 182.730392,357.934052 185.348129,368.287567 
	C187.546753,376.983337 193.977448,380.651245 202.788834,378.887695 
	C208.734268,377.697754 214.627762,375.809235 220.244446,373.502563 
	C233.956924,367.871063 247.775497,363.109375 262.849365,362.775360 
	C267.567902,362.670776 272.256226,361.204071 276.958344,360.360901 
	C277.001099,359.600769 277.043823,358.840637 277.086548,358.080505 
	C273.887268,357.243591 270.668243,355.640747 267.492615,355.722534 
	C259.893433,355.918182 252.196762,356.287689 244.752426,357.705322 
	C229.658524,360.579681 213.467651,357.662689 199.410660,366.149933 
	C198.776062,366.533051 197.472290,366.226990 196.714890,365.812805 
	C196.329178,365.601868 196.360138,364.431763 196.385315,363.701508 
	C196.484497,360.824249 196.656067,357.949463 196.486755,354.255188 
M234.043716,262.014618 
	C236.732880,269.585083 235.778412,279.257385 247.515060,281.086700 
	C252.441345,281.854523 257.142090,281.880219 260.911621,277.103210 
	C267.028595,269.351410 266.933624,251.869843 260.732727,244.184799 
	C254.943756,237.010254 241.631989,237.370560 237.553543,245.488373 
	C235.225739,250.121719 235.132126,255.877533 234.043716,262.014618 
M311.637085,249.967529 
	C309.891663,248.234879 308.338898,246.234177 306.366913,244.816711 
	C298.513123,239.171356 291.557800,240.678696 287.043823,249.145813 
	C282.774811,257.153473 282.082367,265.558044 285.749939,274.009857 
	C290.165649,284.185913 299.943329,286.257690 308.302734,278.920593 
	C316.422546,271.793793 317.826569,261.380371 311.637085,249.967529 
M170.653076,493.630005 
	C169.642502,485.676208 169.992264,477.459015 166.601501,469.158112 
	C160.159042,480.591949 164.661728,528.175354 172.797394,534.148499 
	C172.172058,520.578247 171.571198,507.539368 170.653076,493.630005 
M154.359253,510.230774 
	C151.045013,518.968506 153.934128,526.855713 158.014206,534.418030 
	C158.619720,535.540283 161.044098,535.681274 162.627014,536.276184 
	C162.959320,534.822388 163.742828,533.294556 163.519028,531.932068 
	C163.176575,529.847412 162.005875,527.913147 161.445312,525.844910 
	C161.086304,524.520325 160.565781,522.619446 161.191544,521.748291 
	C165.386551,515.908691 161.114029,510.641479 161.129028,505.124298 
	C160.694199,504.936859 160.259384,504.749390 159.824554,504.561951 
	C158.147919,506.232422 156.471283,507.902924 154.359253,510.230774 
M149.896927,516.150635 
	C149.871964,515.986145 149.865189,515.816040 149.816284,515.658997 
	C149.777054,515.533081 149.686691,515.423035 149.619019,515.305969 
	C148.699020,517.830627 147.095703,520.332764 147.011902,522.884888 
	C146.869904,527.207886 148.133942,528.413696 151.550278,529.474243 
	C150.951614,525.339844 150.347595,521.168274 149.896927,516.150635 
M368.022675,314.052399 
	C368.629211,312.967468 369.235748,311.882568 369.842285,310.797668 
	C369.278168,310.424530 368.714020,310.051361 368.149872,309.678223 
	C365.724396,312.793488 363.298920,315.908752 360.873413,319.023987 
	C361.424286,319.481171 361.975128,319.938324 362.526001,320.395508 
	C364.197449,318.512177 365.868927,316.628845 368.022675,314.052399 
M337.846680,181.382477 
	C336.985199,180.838867 336.123718,180.295273 335.262268,179.751663 
	C335.100159,180.056992 334.938080,180.362320 334.775970,180.667648 
	C335.529388,181.109314 336.282776,181.550995 337.846680,181.382477 
M361.500000,321.000000 
	C361.633331,320.800018 361.766663,320.600006 361.899994,320.399963 
	C361.600006,320.433319 361.299988,320.466644 361.500000,321.000000 
z"/>
<path fill="#63FAD7" opacity="1.000000" stroke="none" 
	d="
M179.094818,419.967529 
	C171.266006,427.232056 169.869080,437.219757 177.284622,445.150177 
	C185.283051,453.703979 194.596008,461.049530 203.512451,468.716370 
	C209.031876,473.462341 214.880920,477.825012 220.601852,482.375549 
	C211.156387,490.596313 192.648132,497.792603 175.090485,499.946594 
	C173.763580,491.890381 172.427109,483.794708 171.103943,475.696869 
	C171.024048,475.207916 171.231354,474.584534 170.997421,474.222382 
	C169.405746,471.758545 168.010742,467.607971 166.024673,467.289246 
	C162.114685,466.661804 162.089325,471.028687 161.882904,473.810242 
	C161.333405,481.215240 160.999435,488.648315 160.952301,496.072601 
	C160.933350,499.060394 160.661316,501.155029 157.873413,503.121918 
	C144.666962,512.439270 130.850281,520.575989 115.351974,526.416870 
	C113.065132,525.382019 111.172516,524.358032 109.279892,523.333984 
	C109.904884,522.619080 110.529877,521.904175 111.154869,521.189209 
	C112.769905,521.444519 114.384941,521.699829 117.463707,522.186523 
	C115.359848,519.919373 114.236099,518.589355 112.990746,517.385010 
	C101.683960,506.449951 94.355064,493.400909 92.346390,477.690979 
	C91.121452,468.110687 94.559265,459.542023 100.313774,452.300171 
	C104.999886,446.402863 110.971550,441.527039 116.871391,435.824738 
	C117.323654,434.981903 117.277679,434.512604 117.231705,434.043304 
	C116.738121,434.276215 116.244545,434.509094 115.750961,434.742004 
	C115.409126,434.857239 115.067284,434.972473 114.228973,434.932312 
	C113.567673,434.650055 113.402832,434.523163 113.237991,434.396240 
	C117.606880,431.374176 121.975777,428.352112 126.652100,425.995117 
	C126.750061,426.896027 126.518051,427.116394 126.341179,427.374573 
	C126.260544,427.492249 126.288780,427.684540 126.267632,427.842987 
	C127.938805,427.364410 129.720963,427.115631 131.263489,426.370697 
	C142.948563,420.727478 154.663620,418.059662 166.846603,425.073517 
	C167.990891,425.732269 169.810089,425.218719 171.315933,425.249481 
	C170.946716,423.458282 171.149612,420.649414 170.103912,420.061615 
	C166.591171,418.086975 162.522247,415.452332 158.870071,415.732117 
	C152.095749,416.250977 145.368439,418.337616 138.810287,420.377991 
	C134.659012,421.669525 130.849258,424.058777 126.886337,425.955750 
	C128.320419,424.628632 129.540405,422.860687 131.222290,422.043762 
	C145.334259,415.189575 159.530991,408.509888 173.884583,401.461975 
	C174.774597,403.326202 175.482208,405.506104 176.590195,408.222168 
	C177.692001,412.494751 178.393417,416.231140 179.094818,419.967529 
z"/>
<path fill="#FDFDFD" opacity="1.000000" stroke="none" 
	d="
M237.017090,237.450348 
	C246.888367,232.003113 256.741333,226.942688 267.133514,221.605331 
	C266.976685,224.292725 266.849274,226.475693 266.654816,229.807983 
	C276.571503,226.010452 285.904755,222.436325 295.443817,218.783401 
	C296.211182,220.853577 297.199371,223.519562 298.417786,226.806625 
	C302.364197,224.954590 305.933441,223.352966 309.432831,221.611053 
	C311.699005,220.483017 313.406616,220.524048 314.839294,222.954102 
	C316.517975,225.801422 318.512543,228.460480 320.267670,231.265305 
	C322.378296,234.638306 322.918213,238.834335 328.512878,239.624481 
	C331.949860,240.109879 333.013336,244.539993 332.039703,248.352188 
	C331.473785,250.568024 330.771790,252.749100 329.821991,256.005310 
	C324.689270,252.848648 320.192291,249.942444 315.560028,247.270782 
	C310.128357,244.138062 304.815338,240.604980 299.022888,238.339905 
	C291.169128,235.268829 279.551483,239.719833 279.746155,252.061447 
	C275.550201,251.583527 271.372162,251.107651 267.154633,250.627289 
	C265.021027,235.027328 246.877411,230.550674 237.377762,240.915680 
	C237.022400,239.901917 237.010574,238.869553 237.017090,237.450348 
z"/>
<path fill="#00160A" opacity="1.000000" stroke="none" 
	d="
M219.376892,328.642395 
	C219.997330,332.983917 220.668411,336.915741 220.824356,340.867859 
	C220.861237,341.802338 219.166672,342.805145 218.268600,343.776520 
	C217.750824,342.640869 216.787064,341.507507 216.781235,340.369232 
	C216.668106,318.267944 209.109283,299.481750 192.193832,284.868256 
	C190.766830,283.635468 188.790955,283.037994 186.627213,281.915619 
	C185.204819,290.064087 183.296616,297.302948 176.983810,302.584137 
	C169.315125,308.999634 158.125534,308.894592 152.380905,302.001740 
	C146.250015,294.645386 148.106598,285.188049 156.774963,280.665161 
	C163.945175,276.923981 171.814499,276.391846 179.621170,277.258209 
	C183.780624,277.719818 184.080444,276.565247 183.584106,273.026245 
	C182.111542,262.526306 176.879135,253.631790 172.043106,244.530182 
	C167.451279,235.888168 162.588577,227.471313 160.741821,217.527466 
	C158.933319,207.789642 161.385910,199.032578 164.888794,190.395859 
	C171.959167,172.963043 183.950912,159.423431 199.124832,148.560806 
	C199.923706,147.988922 200.875290,147.596313 201.806046,147.258896 
	C202.196167,147.117493 202.717468,147.337997 203.997925,147.493240 
	C199.993622,151.087799 196.550720,154.364090 192.914566,157.409637 
	C178.694962,169.319565 167.688110,183.272552 163.799637,201.949753 
	C161.748093,211.803787 163.280136,221.171661 167.594864,230.056702 
	C171.956131,239.037598 177.135544,247.637589 181.183746,256.747864 
	C183.567368,262.112030 184.214691,268.222931 186.111496,273.839722 
	C186.947281,276.314667 188.434860,279.181763 190.501297,280.532410 
	C207.821732,291.853058 215.464447,308.846985 219.376892,328.642395 
M182.596664,287.702789 
	C182.389664,284.963226 185.236801,280.707306 180.207367,280.168457 
	C173.116074,279.408783 165.947556,279.739502 159.235367,282.880341 
	C152.995041,285.800354 150.474670,290.703217 152.350983,296.515411 
	C154.079514,301.869873 160.920868,305.386169 166.808167,304.252594 
	C175.677536,302.544800 179.730377,296.279114 182.596664,287.702789 
z"/>
<path fill="#00160A" opacity="1.000000" stroke="none" 
	d="
M141.995773,389.003815 
	C142.193375,392.711578 140.824600,394.216949 136.886246,393.226318 
	C133.858261,392.464691 130.602478,392.588135 127.596649,391.771118 
	C126.652359,391.514404 125.351837,389.219238 125.639511,388.306061 
	C128.063538,380.611450 130.808655,373.017578 133.501404,365.409088 
	C133.644897,365.003601 134.186066,364.738861 135.130341,363.862976 
	C138.757004,367.859955 142.351257,371.821228 146.203659,376.066986 
	C148.584183,374.658966 150.802017,372.702454 153.360352,372.017273 
	C155.864792,371.346497 158.745071,371.780853 161.391495,372.183197 
	C161.937836,372.266266 162.180389,374.347565 162.562958,375.507874 
	C161.428757,375.820068 160.166260,376.618591 159.182846,376.359192 
	C155.190201,375.305969 148.596588,376.882141 147.505005,380.752716 
	C146.352554,384.839020 146.142639,390.133636 147.834595,393.845917 
	C150.051239,398.709503 154.560074,398.982941 159.912155,396.555969 
	C161.225861,395.960266 162.590073,395.475922 164.070419,394.884735 
	C164.278992,398.577118 162.002701,400.530701 157.552368,400.977203 
	C148.219009,401.913666 144.048111,398.739960 142.264679,388.865051 
	C142.907913,384.582794 143.810532,380.977509 144.536850,378.076385 
	C141.429489,375.408234 138.386810,372.795654 135.615082,370.415710 
	C133.778809,376.271576 131.873322,382.348145 129.786240,389.003815 
	C133.939713,389.003815 137.967743,389.003815 141.995773,389.003815 
z"/>
<path fill="#60F3D1" opacity="1.000000" stroke="none" 
	d="
M310.592926,356.195129 
	C309.633820,358.564117 308.304413,360.993134 306.879639,364.088196 
	C306.303070,365.223328 305.821899,365.692413 305.340729,366.161469 
	C300.332825,367.797638 295.324921,369.433807 290.033844,371.162506 
	C288.963135,368.525574 288.006866,366.170441 287.088959,363.442078 
	C294.825806,360.797607 302.524231,358.526398 310.592926,356.195129 
z"/>
<path fill="#63FAD7" opacity="1.000000" stroke="none" 
	d="
M109.240005,437.395874 
	C109.928688,436.929626 110.617363,436.463379 111.761879,436.151459 
	C112.217720,436.305786 112.476822,436.645569 112.476822,436.645569 
	C111.898605,437.120514 111.320389,437.595459 110.238052,437.922791 
	C109.569290,437.648712 109.404648,437.522308 109.240005,437.395874 
z"/>
<path fill="#63FAD7" opacity="1.000000" stroke="none" 
	d="
M107.961853,438.965424 
	C108.253998,438.555481 108.546150,438.145508 109.039154,437.565735 
	C109.404648,437.522308 109.569290,437.648712 109.962494,437.986603 
	C109.828751,438.608063 109.466461,439.018066 108.688461,439.351868 
	C108.272743,439.275665 107.961853,438.965424 107.961853,438.965424 
z"/>
<path fill="#63FAD7" opacity="1.000000" stroke="none" 
	d="
M112.091545,436.133362 
	C112.255989,435.552277 112.546608,435.143646 113.037613,434.565613 
	C113.402832,434.523163 113.567673,434.650055 113.962143,434.988159 
	C113.788132,435.588348 113.384491,435.977325 112.728836,436.505920 
	C112.476822,436.645569 112.217720,436.305786 112.091545,436.133362 
z"/>
<path fill="#63FAD7" opacity="1.000000" stroke="none" 
	d="
M105.572151,442.578064 
	C105.177528,442.691895 104.782913,442.805695 104.388290,442.919525 
	C104.392067,442.654053 104.395844,442.388611 104.829712,442.200256 
	C105.259804,442.277344 105.572151,442.578064 105.572151,442.578064 
z"/>
<path fill="#63FAD7" opacity="1.000000" stroke="none" 
	d="
M106.572662,441.577606 
	C106.424263,441.866028 106.224091,442.112396 105.772141,442.447388 
	C105.572151,442.578064 105.259804,442.277344 105.111618,442.119141 
	C105.123886,441.663208 105.284355,441.365509 105.852524,441.172485 
	C106.260231,441.277191 106.572662,441.577606 106.572662,441.577606 
z"/>
<path fill="#63FAD7" opacity="1.000000" stroke="none" 
	d="
M106.111954,441.119141 
	C106.124207,440.663391 106.284737,440.365723 106.855453,440.170654 
	C107.265648,440.273285 107.583351,440.568176 107.583351,440.568176 
	C107.433411,440.859344 107.230881,441.107574 106.774216,441.445251 
	C106.572662,441.577606 106.260231,441.277191 106.111954,441.119141 
z"/>
<path fill="#63FAD7" opacity="1.000000" stroke="none" 
	d="
M107.114952,440.117493 
	C107.124062,439.664459 107.283859,439.367188 107.702759,439.017700 
	C107.961853,438.965424 108.272743,439.275665 108.417328,439.441589 
	C108.408020,439.879425 108.211311,440.115692 107.777573,440.442261 
	C107.583351,440.568176 107.265648,440.273285 107.114952,440.117493 
z"/>
<path fill="#FDFEFE" opacity="1.000000" stroke="none" 
	d="
M176.069489,566.934387 
	C165.295074,565.205261 154.566544,564.513489 144.527832,561.513428 
	C129.688004,557.078613 115.315331,551.064453 100.797821,545.579651 
	C97.579262,544.363647 94.586357,542.550354 91.489563,541.012085 
	C91.527832,540.259766 91.566101,539.507385 91.604370,538.755066 
	C107.164383,532.545227 122.724396,526.335449 138.938461,519.864624 
	C139.909866,528.091064 143.861588,532.612183 151.690994,533.249451 
	C152.807678,533.340332 154.046341,534.470642 154.851181,535.434875 
	C159.377380,540.857117 160.130325,541.046814 166.435303,537.689758 
	C170.913849,542.318298 171.692688,542.287903 173.360733,538.212769 
	C177.363068,539.504578 181.491577,542.216614 185.119125,541.660645 
	C189.710709,540.956726 194.157364,537.984680 198.185608,535.275818 
	C202.820984,532.158569 206.807205,528.092651 211.313309,524.760559 
	C214.253693,522.586243 216.931198,522.939453 220.552277,525.020508 
	C226.351135,528.353271 233.103607,530.011902 239.410065,532.487488 
	C240.816360,533.039551 242.044632,534.045105 243.354858,534.841858 
	C242.287109,536.191345 241.475250,537.925659 240.112656,538.831726 
	C223.539230,549.852966 204.870651,556.255249 186.347229,562.959473 
	C184.018219,563.802490 181.620773,564.456421 179.116974,565.531250 
	C178.127258,566.222778 177.275589,566.581055 176.069489,566.934387 
M122.646431,531.029358 
	C121.955788,531.339722 121.265152,531.650085 120.574501,531.960449 
	C121.922859,532.947937 123.132584,534.329895 124.641602,534.860352 
	C136.335052,538.970825 148.145493,542.754456 159.789749,546.995972 
	C164.271790,548.628540 168.340637,551.368835 172.760651,553.214294 
	C174.112091,553.778564 176.005844,553.043945 177.651260,552.904175 
	C176.658051,551.837830 175.791214,550.598999 174.636414,549.753296 
	C173.459091,548.891113 172.045029,548.285095 170.654984,547.790894 
	C154.912552,542.193970 139.154831,536.640137 122.646431,531.029358 
M164.228836,556.242065 
	C161.005753,554.611389 157.859741,552.793396 154.529541,551.422913 
	C152.651657,550.650146 150.470428,550.614563 148.425842,550.246887 
	C152.599518,555.951599 166.085953,560.542969 169.261368,558.709961 
	C167.807388,558.002563 166.353409,557.295166 164.228836,556.242065 
z"/>
<path fill="#0B3022" opacity="1.000000" stroke="none" 
	d="
M430.443909,524.679565 
	C432.589996,523.355713 434.807098,522.522217 436.118835,520.938843 
	C449.076874,505.296722 466.998566,497.623352 485.306244,491.147644 
	C502.922638,484.916412 521.060242,480.158813 538.968811,474.753723 
	C539.172058,475.391235 539.375244,476.028748 539.578491,476.666260 
	C532.826782,478.793762 526.174438,481.339630 519.305176,482.972565 
	C496.085724,488.492188 473.746979,496.210632 453.474518,509.017334 
	C448.411499,512.215820 444.097656,516.600098 438.573364,521.153259 
	C441.993195,522.020691 443.882812,522.379700 445.691833,522.981140 
	C451.359985,524.865540 454.293884,529.205933 452.713470,533.212524 
	C450.854004,537.926392 444.151398,540.503235 439.202240,538.408020 
	C434.236450,536.305786 432.706635,532.132751 432.404572,525.662903 
	C425.552032,529.458618 419.029816,532.521973 413.102295,536.476624 
	C402.845978,543.319336 395.044098,552.554077 388.939240,563.276306 
	C388.153687,564.656067 386.279633,565.416199 384.909790,566.463379 
	C385.063477,564.569702 384.509216,562.136719 385.478516,560.864380 
	C397.389435,545.229736 410.921661,531.504089 430.443909,524.679565 
M435.622253,530.275391 
	C436.273132,531.586121 436.706390,533.826843 437.614288,534.039185 
	C440.780426,534.779968 444.159088,535.250061 447.352325,534.891357 
	C448.472351,534.765503 450.334625,531.729736 450.055786,530.400940 
	C449.109955,525.893555 445.001984,525.121826 441.178955,524.697205 
	C437.925751,524.335754 435.704407,525.773376 435.622253,530.275391 
z"/>
<path fill="#0B2F21" opacity="1.000000" stroke="none" 
	d="
M320.688049,558.305298 
	C326.295227,564.435974 331.727325,570.251892 336.946167,576.253235 
	C338.013458,577.480530 339.147461,579.763245 338.673431,580.903992 
	C338.200653,582.041748 335.794739,582.776428 334.153595,582.963989 
	C322.630249,584.281250 311.093079,585.491821 299.545227,586.575684 
	C290.202698,587.452576 282.974701,582.261719 281.975861,574.207947 
	C280.988525,566.246887 287.211731,558.178162 295.632263,557.724731 
	C299.140594,557.535706 303.076752,559.058289 306.260620,560.814087 
	C309.503387,562.602356 310.848724,562.209656 312.316986,558.971863 
	C314.999268,553.057007 316.097015,553.015503 320.688049,558.305298 
M311.002380,582.299927 
	C319.075195,581.587280 327.147980,580.874573 335.324554,580.152710 
	C331.966400,575.888916 329.237976,572.211792 326.280212,568.729431 
	C323.348175,565.277283 320.185059,562.021362 316.785217,558.310364 
	C315.614502,560.832031 314.826019,562.615784 313.964325,564.363464 
	C313.035767,566.246704 311.609192,567.999512 311.163483,569.981018 
	C310.313171,573.760986 310.005127,577.662903 309.262573,581.895020 
	C309.558868,581.983826 309.855164,582.072571 311.002380,582.299927 
M306.029022,564.454163 
	C301.806244,563.608521 297.568146,562.023193 293.364716,562.110352 
	C288.453949,562.212158 285.370270,566.242371 285.053558,571.029907 
	C284.549011,578.656372 289.993835,583.838074 298.627777,583.948181 
	C305.919037,584.041138 308.964020,580.362854 308.307648,571.799744 
	C308.135315,569.551270 307.126190,567.367004 306.029022,564.454163 
z"/>
<path fill="#092B1D" opacity="1.000000" stroke="none" 
	d="
M451.572876,339.199707 
	C447.264771,340.995728 444.395874,339.555115 442.314270,335.480011 
	C441.158051,333.216461 439.397583,331.261627 437.745331,328.936676 
	C437.018799,332.892090 437.407928,337.125488 435.486633,339.445801 
	C433.568024,341.762970 429.336182,342.164734 425.920380,343.482605 
	C429.908630,344.615906 435.233612,344.570190 436.948517,347.035614 
	C438.828094,349.737732 437.376404,354.757050 437.376404,358.935913 
	C439.500275,356.058777 441.047272,351.877258 443.753845,350.896790 
	C446.341705,349.959381 450.135651,352.351349 454.230316,353.516327 
	C452.889984,350.550537 451.825836,348.195831 450.761688,345.841125 
	C451.155426,345.579773 451.549133,345.318451 451.942871,345.057098 
	C454.724152,348.517670 457.505402,351.978241 460.286682,355.438812 
	C460.127472,355.960968 459.968262,356.483124 459.809052,357.005249 
	C456.915161,356.635498 453.887726,356.681671 451.156647,355.804810 
	C446.261322,354.233093 442.863708,355.607025 439.993805,359.692017 
	C438.676788,361.566589 436.691162,362.971375 435.008759,364.589203 
	C434.438629,364.341522 433.868500,364.093842 433.298370,363.846161 
	C433.487213,361.188965 433.530884,358.511536 433.898315,355.879272 
	C434.472076,351.769135 433.838013,348.920868 428.897064,348.083435 
	C426.459961,347.670349 422.569946,346.022339 422.318054,344.454285 
	C421.688660,340.536560 426.119202,341.027344 428.475555,339.553192 
	C430.421356,338.335876 432.097900,335.929626 432.830566,333.700714 
	C434.082581,329.891754 434.502411,325.809174 435.271729,321.841522 
	C435.717041,321.778168 436.162354,321.714844 436.607666,321.651520 
	C438.189972,324.073120 439.833557,326.457184 441.342651,328.923584 
	C445.320862,335.425476 446.774323,336.105988 454.344818,334.598022 
	C457.379028,333.993591 460.390106,333.272980 463.411743,332.605286 
	C463.711731,333.074005 464.011749,333.542725 464.311768,334.011444 
	C460.398682,336.959869 456.485596,339.908295 452.572510,342.856720 
	C452.435211,342.289185 452.297913,341.721680 452.597473,340.677979 
	C453.267242,339.857452 453.500153,339.513062 453.733093,339.168671 
	C453.013031,339.179016 452.292938,339.189362 451.572876,339.199707 
z"/>
<path fill="#0A2D1F" opacity="1.000000" stroke="none" 
	d="
M456.251770,285.152039 
	C428.151520,302.838257 405.183105,326.289307 379.919006,346.911652 
	C379.563751,347.201569 378.693848,346.860962 376.897003,346.728760 
	C417.433563,309.384705 457.749054,273.564972 510.545959,256.025513 
	C492.557587,265.683136 474.569183,275.340759 456.251770,285.152039 
z"/>
<path fill="#F6BE33" opacity="1.000000" stroke="none" 
	d="
M588.573914,399.862396 
	C592.108765,400.996368 595.643555,402.130371 599.178406,403.264343 
	C599.155273,403.773621 599.132141,404.282867 599.109009,404.792145 
	C596.953064,405.800751 594.857910,407.476532 592.628601,407.679749 
	C587.922668,408.108582 587.259521,410.578857 587.976990,414.456757 
	C588.213074,415.732819 588.014160,417.089355 588.014160,419.803345 
	C585.995361,418.641663 584.365662,418.188080 583.491150,417.117554 
	C579.478699,412.206146 577.352661,411.632721 570.991089,413.750763 
	C569.500793,414.246948 567.731323,413.904694 566.090332,413.948212 
	C566.434326,412.144989 566.205872,409.867218 567.231995,408.629425 
	C570.064758,405.212219 569.724548,402.486603 566.786682,399.448822 
	C565.886108,398.517670 565.713928,396.882111 565.208252,395.569092 
	C566.495544,395.149750 567.803772,394.319733 569.066467,394.384064 
	C573.866028,394.628540 577.402710,392.883942 579.903809,388.727142 
	C580.562439,387.632446 581.945129,386.973389 582.995300,386.114319 
	C583.857666,387.254395 585.133606,388.276794 585.498352,389.558472 
	C586.312012,392.417786 586.670715,395.406555 587.186523,399.084778 
	C586.392212,399.469025 585.143066,399.283264 584.943542,398.723419 
	C584.063354,396.253265 583.485474,393.675323 582.487671,389.989960 
	C580.563049,393.635071 579.828674,396.922577 577.798645,398.298462 
	C576.025818,399.500031 572.794006,398.549011 569.935425,398.549011 
	C575.232483,404.743958 575.232483,404.743958 570.891174,411.057556 
	C573.442566,410.213684 575.863831,407.860077 578.103088,408.021973 
	C580.473022,408.193329 582.669800,410.758362 585.504211,412.653687 
	C582.739075,406.401306 585.051575,403.446930 592.413269,404.305237 
	C590.653198,402.268555 589.613586,401.065460 588.573914,399.862396 
z"/>
<path fill="#0B3022" opacity="1.000000" stroke="none" 
	d="
M260.585022,573.293152 
	C246.260239,570.749634 232.362946,568.381042 218.506882,565.791992 
	C216.673309,565.449280 214.654755,564.316711 213.470215,562.916748 
	C212.701904,562.008667 213.292908,559.950500 213.274841,558.407654 
	C214.640350,558.809814 216.111237,559.009399 217.350723,559.653931 
	C220.483902,561.283264 223.328964,564.048889 226.616623,564.695312 
	C238.994812,567.128967 251.493927,568.961914 263.972168,570.859253 
	C266.232758,571.202942 268.618469,570.637146 270.926270,570.792053 
	C272.129181,570.872742 273.288116,571.609131 274.466980,572.049438 
	C273.301361,572.717773 272.148163,573.924500 270.967773,573.951721 
	C267.659637,574.028137 264.340302,573.617615 260.585022,573.293152 
z"/>
<path fill="#FFFEFB" opacity="1.000000" stroke="none" 
	d="
M588.404724,399.710632 
	C589.613586,401.065460 590.653198,402.268555 592.413269,404.305237 
	C585.051575,403.446930 582.739075,406.401306 585.504211,412.653687 
	C582.669800,410.758362 580.473022,408.193329 578.103088,408.021973 
	C575.863831,407.860077 573.442566,410.213684 570.891174,411.057556 
	C575.232483,404.743958 575.232483,404.743958 569.935425,398.549011 
	C572.794006,398.549011 576.025818,399.500031 577.798645,398.298462 
	C579.828674,396.922577 580.563049,393.635071 582.487671,389.989960 
	C583.485474,393.675323 584.063354,396.253265 584.943542,398.723419 
	C585.143066,399.283264 586.392212,399.469025 587.291870,399.511353 
	C587.731567,399.236206 588.001587,399.357239 588.404724,399.710632 
z"/>
<path fill="#0A2D1F" opacity="1.000000" stroke="none" 
	d="
M478.107361,441.884430 
	C473.206543,437.242584 474.167145,429.535248 479.568817,427.459686 
	C483.998749,425.757446 487.672607,427.872162 490.247498,430.795380 
	C492.015289,432.802338 493.224182,436.394257 492.831299,438.998352 
	C491.823151,445.679901 485.912292,446.787109 478.107361,441.884430 
M488.605591,440.994873 
	C488.802094,438.439178 490.009125,434.295258 488.991486,433.647797 
	C486.640167,432.151825 483.211945,432.076935 480.217285,432.061951 
	C479.503143,432.058380 477.839203,435.294434 478.214966,435.767609 
	C480.018524,438.038757 482.259613,440.024323 484.601746,441.766541 
	C485.263947,442.259155 486.792480,441.587158 488.605591,440.994873 
z"/>
<path fill="#092B1D" opacity="1.000000" stroke="none" 
	d="
M486.948914,381.610474 
	C495.007446,380.154663 498.798004,381.502411 501.740265,386.537994 
	C500.652893,388.056091 499.589020,389.541382 498.979645,390.392151 
	C495.000061,390.392151 491.288055,390.628967 487.625275,390.306427 
	C485.299469,390.101624 483.046875,389.065186 480.761444,388.401733 
	C482.215454,386.305176 483.637054,384.184509 485.158203,382.137817 
	C485.388611,381.827759 486.082062,381.861816 486.948914,381.610474 
M490.510437,387.028107 
	C492.701111,387.355164 494.891785,387.682220 497.472748,388.067535 
	C492.747467,382.812500 487.033234,382.767609 483.704193,387.981110 
	C485.890167,387.632874 487.777466,387.332214 490.510437,387.028107 
z"/>
<path fill="#0A2D1F" opacity="1.000000" stroke="none" 
	d="
M514.389160,369.497162 
	C514.088928,375.409607 507.666504,380.401184 502.435669,379.013672 
	C501.498657,378.765076 500.070557,376.704010 500.275635,376.385498 
	C502.139709,373.490875 503.966583,370.402588 506.501404,368.158325 
	C508.931244,366.006958 512.000793,366.147217 514.389160,369.497162 
M507.594299,371.094452 
	C506.494995,372.426697 505.395660,373.758911 504.296326,375.091156 
	C504.700836,375.522552 505.105347,375.953979 505.509857,376.385376 
	C507.778839,374.934418 510.047821,373.483429 512.316833,372.032471 
	C512.158569,371.519989 512.000244,371.007507 511.841980,370.495026 
	C510.640533,370.556915 509.439087,370.618774 507.594299,371.094452 
z"/>
<path fill="#FFFFFF" opacity="1.000000" stroke="none" 
	d="
M254.666656,474.296997 
	C250.567139,468.902924 246.715256,463.765930 242.698975,458.409668 
	C254.225494,452.694885 265.732269,449.422516 278.118530,449.557465 
	C285.039856,449.632874 286.966217,447.930847 287.504395,440.975067 
	C288.016541,434.355103 288.388947,427.715454 288.537628,421.078064 
	C288.813202,408.775574 288.911835,396.468658 289.023499,384.163055 
	C289.089691,376.868164 290.994873,374.544708 298.592163,372.821503 
	C305.271576,388.685089 320.395874,393.851898 342.187286,389.464264 
	C356.256226,386.631531 367.943176,379.396454 378.273743,369.571167 
	C388.273224,360.060699 393.589691,361.824646 401.503632,368.642761 
	C411.789215,377.504089 421.164520,387.002197 427.747253,398.988739 
	C432.606964,407.837677 433.358307,417.689880 433.823975,427.391968 
	C434.396545,439.321899 433.964233,451.300323 433.941711,463.257751 
	C433.940643,463.812408 433.699280,464.366638 433.310669,466.030945 
	C432.334412,464.013672 431.841248,462.994659 430.672546,460.579742 
	C429.717621,462.141144 429.067993,463.203308 428.327911,464.413391 
	C418.052551,455.865295 406.483246,452.498779 393.324036,456.840759 
	C388.521851,458.425262 385.088959,460.107697 383.323517,466.475525 
	C376.826477,489.909576 352.946381,507.463226 328.511017,509.018433 
	C298.645111,510.919342 275.860138,497.673370 256.651825,476.348724 
	C256.094910,475.730438 255.494431,475.151428 254.666656,474.296997 
z"/>
<path fill="#FEFEFE" opacity="1.000000" stroke="none" 
	d="
M343.779694,182.897919 
	C339.303406,179.841141 334.535431,177.112732 330.516022,173.541718 
	C329.187958,172.361801 329.114441,168.850418 329.623047,166.675262 
	C332.442474,154.616638 341.485046,147.297989 355.576965,145.904495 
	C370.806091,144.398560 383.552063,149.734329 392.317139,162.256866 
	C401.166412,174.899643 401.944336,188.842773 395.443420,202.886414 
	C392.622314,208.980682 387.871765,212.777130 380.708069,213.052231 
	C378.167938,213.149796 375.660736,214.104355 372.571472,214.794312 
	C383.221008,224.919800 384.612366,237.629959 385.282135,250.230408 
	C386.406708,271.388000 382.611877,291.588318 371.011749,309.803192 
	C370.668884,310.341553 370.216644,310.810242 370.212067,310.815979 
	C367.956635,310.096008 366.070129,309.493805 363.697998,308.736603 
	C363.810425,300.001312 360.712250,291.542389 353.456635,285.242554 
	C355.136810,280.576660 357.281769,276.223663 358.241730,271.623383 
	C360.291779,261.799103 354.426666,255.026169 344.510712,254.941223 
	C341.228790,254.913101 337.949371,254.595352 335.221039,254.441223 
	C334.378998,248.408066 333.919067,242.887482 332.757812,237.518600 
	C331.877960,233.450607 329.354950,230.995071 324.720001,233.300262 
	C322.872375,229.945648 321.117889,226.631088 319.242645,223.386322 
	C316.553864,218.733871 317.722809,215.213150 322.774811,213.211151 
	C324.268188,212.619339 325.825043,212.187668 327.352783,211.682617 
	C327.194061,211.114532 327.035339,210.546448 326.876617,209.978363 
	C325.006836,210.532974 322.956909,210.766891 321.298798,211.698349 
	C314.521851,215.505371 307.864563,219.525482 301.141693,223.479797 
	C297.985413,217.034958 299.666626,214.009995 310.258453,204.674347 
	C308.486206,205.542435 306.461792,206.105743 304.983215,207.328842 
	C296.346222,214.473419 286.985168,220.319687 276.349091,223.998917 
	C274.860992,224.513687 273.333344,224.914032 271.520172,225.458572 
	C271.225647,212.779892 283.774109,213.878464 289.546600,206.619949 
	C287.257080,207.263931 285.393707,207.405502 283.949188,208.257370 
	C275.529083,213.222824 267.384369,218.683487 258.790070,223.315338 
	C253.051971,226.407867 246.721222,228.400787 240.276733,231.041092 
	C237.175461,222.399750 239.784241,215.779846 242.830521,209.077011 
	C257.137970,177.595825 298.129578,170.697479 322.849579,180.619308 
	C334.232239,185.187943 345.674866,189.359985 354.986877,197.887466 
	C355.482330,197.416611 355.977783,196.945770 356.473236,196.474930 
	C355.284302,194.732208 354.442078,192.514725 352.836609,191.342331 
	C349.115784,188.625183 345.025970,186.413300 341.913574,183.757980 
	C343.087494,183.312225 343.433594,183.105072 343.779694,182.897919 
z"/>
<path fill="#FEFEFE" opacity="1.000000" stroke="none" 
	d="
M206.825958,429.175568 
	C216.890900,436.785309 227.449371,434.413208 238.016052,431.811188 
	C239.301941,431.494568 240.528671,430.801361 241.819595,430.682770 
	C242.932129,430.580536 244.732193,430.692169 245.098236,431.343933 
	C245.735336,432.478271 245.841782,434.184692 245.521500,435.492249 
	C245.283096,436.465454 244.068588,437.242554 243.204803,438.012787 
	C235.938400,444.491913 234.673737,450.709320 239.897354,458.937744 
	C244.235687,465.771698 248.886581,472.509338 254.173523,478.619507 
	C268.940735,495.686218 287.114105,507.389893 309.635742,511.400848 
	C341.680328,517.107727 372.532471,501.357056 383.785126,472.086609 
	C387.024689,463.659912 393.865112,459.029327 402.804779,458.091003 
	C412.637421,457.058960 420.770172,460.575745 426.278046,468.871857 
	C427.675110,470.976135 428.677277,474.523743 427.899139,476.709808 
	C419.302307,500.861084 407.053223,522.625305 385.410065,537.696411 
	C369.226593,548.965759 350.998138,552.365417 331.803070,549.864136 
	C305.051666,546.378235 280.663116,536.300598 258.524414,521.012939 
	C254.712082,518.380432 251.602631,514.307678 249.059479,510.330505 
	C236.215698,490.244568 219.167053,474.753021 199.282043,461.771667 
	C191.842453,456.914978 185.590820,449.869324 179.785446,442.988220 
	C174.572937,436.809875 174.763687,429.584900 178.531036,425.032776 
	C182.121002,420.694977 190.159393,419.519684 196.944077,422.791473 
	C200.345123,424.431549 203.369675,426.852386 206.825958,429.175568 
z"/>
<path fill="#FFFFFF" opacity="1.000000" stroke="none" 
	d="
M279.712341,446.234009 
	C266.602844,448.480103 253.914062,450.580841 240.514984,452.799164 
	C238.833435,449.493164 239.742920,445.327820 243.230652,441.586243 
	C244.241867,440.501434 246.043640,439.845764 246.509964,438.622467 
	C247.610214,435.736145 248.125046,432.626678 248.876663,429.607483 
	C246.138382,429.070038 243.370438,427.993103 240.669876,428.141571 
	C237.768280,428.301117 234.944214,429.666809 232.061295,430.408936 
	C223.716782,432.557068 216.033478,431.240570 208.885727,426.273621 
	C202.209991,421.634705 195.571976,416.762665 186.600922,417.926575 
	C185.902161,418.017242 184.371979,415.882141 184.122757,414.606750 
	C181.688187,402.146881 181.350876,389.594543 182.786148,376.684296 
	C183.576447,376.796570 184.266586,376.706543 184.731613,376.988190 
	C196.310089,384.000519 208.192627,383.863190 219.779907,377.568359 
	C235.520050,369.017517 252.285233,365.523590 270.015015,365.500000 
	C273.286072,365.495636 276.632629,364.836761 279.807465,363.975403 
	C284.107513,362.808807 285.881500,364.767731 285.911072,368.571991 
	C286.026337,383.397888 286.129395,398.228210 285.882874,413.050995 
	C285.734192,421.991943 284.986023,430.925598 284.393524,439.854950 
	C284.207092,442.664429 284.010620,445.696655 279.712341,446.234009 
M217.807709,387.445221 
	C213.902588,385.831757 213.940338,388.807129 213.997299,391.041992 
	C214.153442,397.168579 214.556381,403.290558 214.951157,409.408569 
	C215.136230,412.276825 215.527496,415.131714 215.825317,417.992676 
	C216.505951,417.940063 217.186600,417.887482 217.867233,417.834869 
	C217.867233,415.994934 217.858810,414.154938 217.868774,412.315033 
	C217.901749,406.229095 217.931412,400.143066 217.984192,394.057281 
	C218.001129,392.103821 218.085846,390.150940 217.807709,387.445221 
z"/>
<path fill="#FEFEFE" opacity="1.000000" stroke="none" 
	d="
M268.899933,262.013611 
	C270.027954,260.375031 271.536713,257.204010 272.215668,257.372711 
	C274.679840,257.985016 277.382141,259.279755 278.983765,261.172485 
	C280.141144,262.540222 279.909485,265.261414 279.930054,267.382599 
	C280.024017,277.067261 283.679260,282.914917 291.505280,285.608154 
	C299.116058,288.227295 309.021820,285.410950 313.657349,278.369629 
	C316.208710,274.494049 317.931122,269.775879 318.826904,265.202454 
	C319.527222,261.626678 320.919586,259.447998 324.214752,259.164948 
	C331.296600,258.556671 338.431488,257.981689 345.518585,258.208282 
	C350.923035,258.381073 354.194214,262.531616 354.821320,268.226227 
	C355.493988,274.333923 352.465759,280.422058 347.959381,282.325653 
	C346.865295,282.787781 345.977753,283.738831 344.995209,284.465027 
	C345.942902,285.233337 346.798645,286.171936 347.853546,286.741730 
	C353.683655,289.890747 357.852936,294.471222 359.610718,300.885773 
	C361.455780,307.618835 360.546143,313.600983 354.479828,318.216125 
	C338.920074,330.053772 322.482117,339.764496 302.153961,339.936157 
	C280.467163,340.119324 265.577362,329.235474 255.989410,310.018372 
	C273.457825,318.307892 292.513306,316.556122 301.217499,304.579987 
	C293.319183,307.256470 286.199738,310.559296 278.723724,311.962708 
	C270.545502,313.497925 263.061493,310.535950 257.688354,304.116211 
	C261.275116,302.786194 263.416595,300.646820 261.170288,297.346893 
	C260.289093,296.052368 257.257660,294.991150 255.853363,295.525696 
	C252.361816,296.854858 252.289978,299.824463 254.027390,303.283630 
	C253.886856,304.012390 253.865952,304.309998 253.845062,304.607574 
	C249.277039,299.173950 249.083420,292.586670 248.478302,285.619598 
	C256.993713,285.865417 262.423828,281.604706 266.844727,275.632568 
	C267.100830,280.216034 266.370087,284.149689 266.730042,287.980835 
	C266.996948,290.821869 269.240509,292.389282 272.512939,291.182129 
	C268.642487,288.108826 268.582031,284.404572 269.617401,280.360718 
	C270.921173,275.268433 272.244263,270.177032 273.343140,265.039062 
	C273.646942,263.618469 273.183472,262.033783 273.072021,260.524384 
	C271.681335,261.020813 270.290619,261.517212 268.899933,262.013611 
M310.709595,308.833618 
	C314.498016,311.679596 318.447693,312.000336 322.088989,308.861420 
	C324.950378,306.394775 325.869415,303.057129 324.397034,299.387177 
	C322.533234,294.741638 317.278870,292.701233 312.889099,294.839996 
	C307.677185,297.379303 306.673279,302.323700 310.709595,308.833618 
M346.262878,266.000275 
	C344.675262,265.662872 343.100586,265.198700 341.495270,265.035339 
	C340.521454,264.936218 339.500336,265.302399 338.500458,265.459503 
	C338.708496,266.471832 338.584778,268.016632 339.188965,268.393036 
	C340.774658,269.380890 342.677551,269.859558 343.710175,270.255737 
	C343.253082,271.812866 342.749603,273.528076 342.246094,275.243286 
	C343.424957,275.279388 344.852264,275.764130 345.739136,275.272949 
	C349.342163,273.277557 350.649933,265.574799 347.805725,261.368683 
	C347.330872,262.916595 346.976807,264.070679 346.262878,266.000275 
M279.852753,317.990173 
	C277.594727,318.612579 275.336700,319.235016 273.078674,319.857452 
	C273.315796,320.589111 273.565430,321.958710 273.788177,321.954346 
	C276.175568,321.907623 278.560120,321.658234 280.941193,321.421204 
	C281.241089,321.391357 281.782745,321.019165 281.763367,320.964417 
	C281.423065,320.002441 281.012878,319.065125 279.852753,317.990173 
z"/>
<path fill="#FEFEFE" opacity="1.000000" stroke="none" 
	d="
M305.279816,366.516968 
	C305.821899,365.692413 306.303070,365.223328 306.914856,364.441101 
	C312.482574,363.088806 315.232971,359.115723 314.995483,352.329590 
	C314.926666,350.363068 314.410706,348.409515 314.065765,346.455963 
	C313.581573,343.713379 314.604492,341.986298 317.354218,341.272797 
	C330.725677,337.803192 342.446106,331.119232 354.472015,321.667328 
	C354.037109,327.220612 353.690430,331.647186 353.021179,336.709595 
	C353.402283,339.956543 353.518890,342.953094 354.928741,345.100586 
	C358.105621,349.939423 361.820648,354.441833 365.504608,358.926788 
	C370.372009,364.852509 370.086761,367.960632 363.605621,372.211823 
	C353.594421,378.778503 342.254333,381.020813 330.558685,382.070984 
	C324.355652,382.628021 318.171722,383.397949 311.979187,384.071777 
	C304.779236,381.305450 302.121277,374.216461 305.279816,366.516968 
z"/>
<path fill="#FEFEFE" opacity="1.000000" stroke="none" 
	d="
M218.714691,488.622986 
	C223.670120,486.128754 227.955460,488.507690 230.597733,491.320526 
	C235.634323,496.682312 239.543243,503.103394 244.894699,510.416168 
	C238.083969,512.775085 232.548172,515.439209 226.715805,516.559631 
	C213.893494,519.022949 202.985901,524.395630 193.975403,534.003662 
	C191.689636,536.440979 187.891510,538.185730 184.566895,538.644592 
	C182.644730,538.909912 179.580154,536.371887 178.402512,534.311096 
	C177.788834,533.237183 180.059082,530.409546 181.199097,528.475647 
	C181.980743,527.149658 183.146713,526.049011 183.913803,524.716797 
	C184.032639,524.510376 182.654495,523.013306 182.441650,523.113892 
	C181.013031,523.789062 179.628632,524.631714 178.399063,525.628784 
	C177.551346,526.316162 176.975357,527.338623 176.277908,528.211365 
	C175.799774,528.163208 175.321655,528.115051 174.843521,528.066956 
	C174.843521,520.752075 174.676605,513.429321 175.024384,506.131042 
	C175.076248,505.042664 177.432693,503.402191 178.917267,503.146942 
	C192.956390,500.732788 206.003677,495.680328 218.714691,488.622986 
z"/>
<path fill="#FEFEFE" opacity="1.000000" stroke="none" 
	d="
M196.643768,354.664490 
	C196.656067,357.949463 196.484497,360.824249 196.385315,363.701508 
	C196.360138,364.431763 196.329178,365.601868 196.714890,365.812805 
	C197.472290,366.226990 198.776062,366.533051 199.410660,366.149933 
	C213.467651,357.662689 229.658524,360.579681 244.752426,357.705322 
	C252.196762,356.287689 259.893433,355.918182 267.492615,355.722534 
	C270.668243,355.640747 273.887268,357.243591 277.086548,358.080505 
	C277.043823,358.840637 277.001099,359.600769 276.958344,360.360901 
	C272.256226,361.204071 267.567902,362.670776 262.849365,362.775360 
	C247.775497,363.109375 233.956924,367.871063 220.244446,373.502563 
	C214.627762,375.809235 208.734268,377.697754 202.788834,378.887695 
	C193.977448,380.651245 187.546753,376.983337 185.348129,368.287567 
	C182.730392,357.934052 181.296707,347.281189 179.371750,336.875641 
	C185.625916,334.679779 190.237839,335.907898 192.599533,341.014679 
	C194.509308,345.144196 195.235519,349.821106 196.643768,354.664490 
z"/>
<path fill="#FDFDFD" opacity="1.000000" stroke="none" 
	d="
M234.038116,261.571289 
	C235.132126,255.877533 235.225739,250.121719 237.553543,245.488373 
	C241.631989,237.370560 254.943756,237.010254 260.732727,244.184799 
	C266.933624,251.869843 267.028595,269.351410 260.911621,277.103210 
	C257.142090,281.880219 252.441345,281.854523 247.515060,281.086700 
	C235.778412,279.257385 236.732880,269.585083 234.038116,261.571289 
M240.302017,259.449066 
	C244.671310,255.898026 249.040604,252.346970 253.214828,248.954453 
	C249.345474,246.840225 239.825989,251.664658 238.792496,257.061890 
	C238.669449,257.704468 239.317993,258.494781 240.302017,259.449066 
M245.438263,270.336151 
	C246.682220,271.724426 247.926178,273.112701 249.170120,274.500977 
	C250.123749,272.975769 251.556793,271.540894 251.867081,269.894440 
	C252.083817,268.744293 251.019897,266.438477 250.081253,266.161255 
	C247.551315,265.413910 245.628647,266.583466 245.438263,270.336151 
z"/>
<path fill="#FDFDFD" opacity="1.000000" stroke="none" 
	d="
M311.883606,250.250336 
	C317.826569,261.380371 316.422546,271.793793 308.302734,278.920593 
	C299.943329,286.257690 290.165649,284.185913 285.749939,274.009857 
	C282.082367,265.558044 282.774811,257.153473 287.043823,249.145813 
	C291.557800,240.678696 298.513123,239.171356 306.366913,244.816711 
	C308.338898,246.234177 309.891663,248.234879 311.883606,250.250336 
M302.892395,256.307617 
	C303.897156,256.666412 304.901917,257.025177 305.906708,257.383972 
	C306.023865,256.633087 306.510071,255.481659 306.199249,255.195267 
	C303.904846,253.081177 301.532257,251.023849 298.978882,249.243118 
	C298.479004,248.894485 297.085236,249.827484 296.103760,250.169357 
	C296.599823,251.156219 296.865051,252.419235 297.642639,253.069290 
	C299.023682,254.223755 300.715424,255.006577 302.892395,256.307617 
M298.149994,270.061401 
	C297.163208,268.241821 295.856903,266.098541 294.092529,268.904816 
	C293.267029,270.217834 293.937195,272.599060 294.283234,274.429321 
	C294.367859,274.876831 295.843201,275.061432 296.679138,275.366913 
	C297.231873,273.842896 297.784607,272.318848 298.149994,270.061401 
z"/>
<path fill="#DDE1E4" opacity="1.000000" stroke="none" 
	d="
M312.188660,384.380768 
	C318.171722,383.397949 324.355652,382.628021 330.558685,382.070984 
	C342.254333,381.020813 353.594421,378.778503 363.605621,372.211823 
	C370.086761,367.960632 370.372009,364.852509 365.504608,358.926788 
	C361.820648,354.441833 358.105621,349.939423 354.928741,345.100586 
	C353.518890,342.953094 353.402283,339.956543 352.982788,337.131653 
	C355.333649,344.958130 361.300446,349.118591 368.464874,351.945831 
	C374.298859,354.248138 380.231110,356.301453 386.083954,358.451996 
	C368.262634,377.420013 348.181793,391.035217 320.497253,386.939148 
	C317.746826,386.532227 315.095459,385.455597 312.188660,384.380768 
z"/>
<path fill="#ECEDED" opacity="1.000000" stroke="none" 
	d="
M170.811707,494.065247 
	C171.571198,507.539368 172.172058,520.578247 172.797394,534.148499 
	C164.661728,528.175354 160.159042,480.591949 166.601501,469.158112 
	C169.992264,477.459015 169.642502,485.676208 170.811707,494.065247 
z"/>
<path fill="#E8EAE9" opacity="1.000000" stroke="none" 
	d="
M179.472961,419.865875 
	C178.393417,416.231140 177.692001,412.494751 176.916885,408.364258 
	C176.141464,398.907867 175.497116,389.840698 174.724579,380.784454 
	C173.571365,367.265564 173.712296,353.805115 176.803452,340.347015 
	C177.237823,344.743713 177.668518,349.140778 178.107559,353.537018 
	C178.567917,358.146973 179.274582,362.746643 179.457687,367.367279 
	C180.074615,382.933746 180.552002,398.506378 180.950226,414.080048 
	C180.998398,415.964172 180.237198,417.868988 179.472961,419.865875 
z"/>
<path fill="#F3F4F4" opacity="1.000000" stroke="none" 
	d="
M154.576950,509.902100 
	C156.471283,507.902924 158.147919,506.232422 159.824554,504.561951 
	C160.259384,504.749390 160.694199,504.936859 161.129028,505.124298 
	C161.114029,510.641479 165.386551,515.908691 161.191544,521.748291 
	C160.565781,522.619446 161.086304,524.520325 161.445312,525.844910 
	C162.005875,527.913147 163.176575,529.847412 163.519028,531.932068 
	C163.742828,533.294556 162.959320,534.822388 162.627014,536.276184 
	C161.044098,535.681274 158.619720,535.540283 158.014206,534.418030 
	C153.934128,526.855713 151.045013,518.968506 154.576950,509.902100 
z"/>
<path fill="#1D3026" opacity="1.000000" stroke="none" 
	d="
M257.280151,304.164398 
	C263.061493,310.535950 270.545502,313.497925 278.723724,311.962708 
	C286.199738,310.559296 293.319183,307.256470 301.217499,304.579987 
	C292.513306,316.556122 273.457825,318.307892 256.184082,309.689514 
	C255.945557,310.046936 255.993591,310.003448 256.097717,309.533173 
	C255.640244,309.027985 255.078690,308.993073 254.517120,308.958160 
	C254.325439,308.331635 254.133759,307.705109 254.113220,306.288239 
	C254.195831,305.138733 254.107330,304.779572 254.018829,304.420410 
	C254.018829,304.420410 254.004486,304.498444 254.376709,304.445679 
	C254.954681,304.209320 255.160431,304.025787 255.610138,303.867065 
	C256.329437,303.982727 256.804779,304.073578 257.280151,304.164398 
z"/>
<path fill="#21342A" opacity="1.000000" stroke="none" 
	d="
M268.943237,262.010193 
	C270.290619,261.517212 271.681335,261.020813 273.072021,260.524384 
	C273.183472,262.033783 273.646942,263.618469 273.343140,265.039062 
	C272.244263,270.177032 270.921173,275.268433 269.617401,280.360718 
	C268.582031,284.404572 268.642487,288.108826 272.512939,291.182129 
	C269.240509,292.389282 266.996948,290.821869 266.730042,287.980835 
	C266.370087,284.149689 267.100830,280.216034 267.195862,275.891052 
	C267.028198,275.455688 267.036804,275.549255 267.384583,275.361572 
	C268.145935,270.756287 268.559448,266.338623 268.972961,261.920990 
	C268.972961,261.920990 268.986542,262.006775 268.943237,262.010193 
z"/>
<path fill="#DDE1E4" opacity="1.000000" stroke="none" 
	d="
M149.820251,516.573730 
	C150.347595,521.168274 150.951614,525.339844 151.550278,529.474243 
	C148.133942,528.413696 146.869904,527.207886 147.011902,522.884888 
	C147.095703,520.332764 148.699020,517.830627 149.619019,515.305969 
	C149.686691,515.423035 149.777054,515.533081 149.816284,515.658997 
	C149.865189,515.816040 149.871964,515.986145 149.820251,516.573730 
z"/>
<path fill="#FEFEFE" opacity="1.000000" stroke="none" 
	d="
M367.781525,314.398956 
	C365.868927,316.628845 364.197449,318.512177 362.526001,320.395508 
	C361.975128,319.938324 361.424286,319.481171 360.873413,319.023987 
	C363.298920,315.908752 365.724396,312.793488 368.149872,309.678223 
	C368.714020,310.051361 369.278168,310.424530 369.842285,310.797668 
	C369.235748,311.882568 368.629211,312.967468 367.781525,314.398956 
z"/>
<path fill="#FEFEFE" opacity="1.000000" stroke="none" 
	d="
M268.568237,262.068909 
	C268.559448,266.338623 268.145935,270.756287 267.337708,275.364197 
	C267.349823,271.108612 267.756683,266.662720 268.568237,262.068909 
z"/>
<path fill="#FEFEFE" opacity="1.000000" stroke="none" 
	d="
M337.441437,181.687561 
	C336.282776,181.550995 335.529388,181.109314 334.775970,180.667648 
	C334.938080,180.362320 335.100159,180.056992 335.262268,179.751663 
	C336.123718,180.295273 336.985199,180.838867 337.441437,181.687561 
z"/>
<path fill="#FEFEFE" opacity="1.000000" stroke="none" 
	d="
M342.179077,183.296051 
	C342.189270,182.880676 342.761749,182.688660 343.556946,182.697281 
	C343.433594,183.105072 343.087494,183.312225 342.179077,183.296051 
z"/>
<path fill="#FEFEFE" opacity="1.000000" stroke="none" 
	d="
M255.366180,303.842224 
	C255.160431,304.025787 254.954681,304.209320 254.337646,304.438660 
	C253.926392,304.484467 253.907059,304.561218 253.876068,304.584412 
	C253.865952,304.309998 253.886856,304.012390 254.285049,303.375275 
	C254.896942,303.304565 255.131561,303.573395 255.366180,303.842224 
z"/>
<path fill="#FEFEFE" opacity="1.000000" stroke="none" 
	d="
M253.585693,304.429138 
	C254.107330,304.779572 254.195831,305.138733 254.154541,306.037384 
	C253.734009,305.863861 253.443283,305.150879 253.585693,304.429138 
z"/>
<path fill="#FEFEFE" opacity="1.000000" stroke="none" 
	d="
M254.713898,309.283142 
	C255.078690,308.993073 255.640244,309.027985 256.101929,309.565247 
	C255.638275,309.914429 255.274475,309.761261 254.713898,309.283142 
z"/>
<path fill="#FEFEFE" opacity="1.000000" stroke="none" 
	d="
M361.250000,320.750000 
	C361.299988,320.466644 361.600006,320.433319 361.899994,320.399963 
	C361.766663,320.600006 361.633331,320.800018 361.250000,320.750000 
z"/>
<path fill="#08291B" opacity="1.000000" stroke="none" 
	d="
M126.920517,425.980408 
	C130.849258,424.058777 134.659012,421.669525 138.810287,420.377991 
	C145.368439,418.337616 152.095749,416.250977 158.870071,415.732117 
	C162.522247,415.452332 166.591171,418.086975 170.103912,420.061615 
	C171.149612,420.649414 170.946716,423.458282 171.315933,425.249481 
	C169.810089,425.218719 167.990891,425.732269 166.846603,425.073517 
	C154.663620,418.059662 142.948563,420.727478 131.263489,426.370697 
	C129.720963,427.115631 127.938805,427.364410 126.267632,427.842987 
	C126.288780,427.684540 126.260544,427.492249 126.341179,427.374573 
	C126.518051,427.116394 126.750061,426.896027 126.945122,426.293030 
	C126.930702,425.925842 126.954697,426.005035 126.920517,425.980408 
z"/>
<path fill="#000000" opacity="1.000000" stroke="none" 
	d="
M116.010971,434.984924 
	C116.244545,434.509094 116.738121,434.276215 117.231705,434.043304 
	C117.277679,434.512604 117.323654,434.981903 117.091156,435.570312 
	C116.632111,435.535553 116.451538,435.381683 116.010971,434.984924 
z"/>
<path fill="#000000" opacity="1.000000" stroke="none" 
	d="
M182.448853,288.089294 
	C179.730377,296.279114 175.677536,302.544800 166.808167,304.252594 
	C160.920868,305.386169 154.079514,301.869873 152.350983,296.515411 
	C150.474670,290.703217 152.995041,285.800354 159.235367,282.880341 
	C165.947556,279.739502 173.116074,279.408783 180.207367,280.168457 
	C185.236801,280.707306 182.389664,284.963226 182.448853,288.089294 
z"/>
<path fill="#000000" opacity="1.000000" stroke="none" 
	d="
M141.997894,389.001892 
	C137.967743,389.003815 133.939713,389.003815 129.786240,389.003815 
	C131.873322,382.348145 133.778809,376.271576 135.615082,370.415710 
	C138.386810,372.795654 141.429489,375.408234 144.536850,378.076385 
	C143.810532,380.977509 142.907913,384.582794 142.004669,388.592224 
	C142.004028,388.996338 142.000000,389.000000 141.997894,389.001892 
z"/>
<path fill="#E9EBEF" opacity="1.000000" stroke="none" 
	d="
M123.023819,531.052063 
	C139.154831,536.640137 154.912552,542.193970 170.654984,547.790894 
	C172.045029,548.285095 173.459091,548.891113 174.636414,549.753296 
	C175.791214,550.598999 176.658051,551.837830 177.651245,552.904175 
	C176.005844,553.043945 174.112091,553.778564 172.760651,553.214294 
	C168.340637,551.368835 164.271790,548.628540 159.789749,546.995972 
	C148.145493,542.754456 136.335052,538.970825 124.641602,534.860352 
	C123.132584,534.329895 121.922859,532.947937 120.574509,531.960449 
	C121.265152,531.650085 121.955788,531.339722 123.023819,531.052063 
z"/>
<path fill="#E9EBEF" opacity="1.000000" stroke="none" 
	d="
M164.564133,556.414917 
	C166.353409,557.295166 167.807388,558.002563 169.261292,558.710083 
	C166.085953,560.542969 152.599518,555.951599 148.425842,550.246887 
	C150.470428,550.614563 152.651657,550.650146 154.529541,551.422913 
	C157.859741,552.793396 161.005753,554.611389 164.564133,556.414917 
z"/>
<path fill="#5EEFCD" opacity="1.000000" stroke="none" 
	d="
M435.608978,529.846924 
	C435.704407,525.773376 437.925751,524.335754 441.178955,524.697205 
	C445.001984,525.121826 449.109955,525.893555 450.055786,530.400940 
	C450.334625,531.729736 448.472351,534.765503 447.352325,534.891357 
	C444.159088,535.250061 440.780426,534.779968 437.614288,534.039185 
	C436.706390,533.826843 436.273132,531.586121 435.608978,529.846924 
z"/>
<path fill="#63FBD8" opacity="1.000000" stroke="none" 
	d="
M306.265198,564.803711 
	C307.126190,567.367004 308.135315,569.551270 308.307648,571.799744 
	C308.964020,580.362854 305.919037,584.041138 298.627777,583.948181 
	C289.993835,583.838074 284.549011,578.656372 285.053558,571.029907 
	C285.370270,566.242371 288.453949,562.212158 293.364716,562.110352 
	C297.568146,562.023193 301.806244,563.608521 306.265198,564.803711 
z"/>
<path fill="#63FAD7" opacity="1.000000" stroke="none" 
	d="
M309.471985,581.514221 
	C310.005127,577.662903 310.313171,573.760986 311.163483,569.981018 
	C311.609192,567.999512 313.035767,566.246704 313.964325,564.363464 
	C314.826019,562.615784 315.614502,560.832031 316.785217,558.310364 
	C320.185059,562.021362 323.348175,565.277283 326.280212,568.729431 
	C329.237976,572.211792 331.966400,575.888916 335.324554,580.152710 
	C327.147980,580.874573 319.075195,581.587280 310.411438,582.064209 
	C309.820526,581.828491 309.471985,581.514221 309.471985,581.514221 
z"/>
<path fill="#63FAD7" opacity="1.000000" stroke="none" 
	d="
M309.985992,581.994873 
	C309.855164,582.072571 309.558868,581.983826 309.367279,581.704590 
	C309.471985,581.514221 309.820526,581.828491 309.985992,581.994873 
z"/>
<path fill="#64FCD9" opacity="1.000000" stroke="none" 
	d="
M451.788788,339.552216 
	C452.292938,339.189362 453.013031,339.179016 453.733093,339.168671 
	C453.500153,339.513062 453.267242,339.857452 452.773132,340.379761 
	C452.342834,340.339996 452.173767,340.122345 451.788788,339.552216 
z"/>
<path fill="#63FAD7" opacity="1.000000" stroke="none" 
	d="
M488.264648,441.222076 
	C486.792480,441.587158 485.263947,442.259155 484.601746,441.766541 
	C482.259613,440.024323 480.018524,438.038757 478.214966,435.767609 
	C477.839203,435.294434 479.503143,432.058380 480.217285,432.061951 
	C483.211945,432.076935 486.640167,432.151825 488.991486,433.647797 
	C490.009125,434.295258 488.802094,438.439178 488.264648,441.222076 
z"/>
<path fill="#56DBBB" opacity="1.000000" stroke="none" 
	d="
M490.087585,387.029846 
	C487.777466,387.332214 485.890167,387.632874 483.704193,387.981110 
	C487.033234,382.767609 492.747467,382.812500 497.472748,388.067535 
	C494.891785,387.682220 492.701111,387.355164 490.087585,387.029846 
z"/>
<path fill="#56DBBB" opacity="1.000000" stroke="none" 
	d="
M507.915955,370.887543 
	C509.439087,370.618774 510.640533,370.556915 511.841980,370.495026 
	C512.000244,371.007507 512.158569,371.519989 512.316833,372.032471 
	C510.047821,373.483429 507.778839,374.934418 505.509857,376.385376 
	C505.105347,375.953979 504.700836,375.522552 504.296326,375.091156 
	C505.395660,373.758911 506.494995,372.426697 507.915955,370.887543 
z"/>
<path fill="#21342A" opacity="1.000000" stroke="none" 
	d="
M217.973633,387.821533 
	C218.085846,390.150940 218.001129,392.103821 217.984192,394.057281 
	C217.931412,400.143066 217.901749,406.229095 217.868774,412.315033 
	C217.858810,414.154938 217.867233,415.994934 217.867233,417.834869 
	C217.186600,417.887482 216.505951,417.940063 215.825317,417.992676 
	C215.527496,415.131714 215.136230,412.276825 214.951157,409.408569 
	C214.556381,403.290558 214.153442,397.168579 213.997299,391.041992 
	C213.940338,388.807129 213.902588,385.831757 217.973633,387.821533 
z"/>
<path fill="#FFB824" opacity="1.000000" stroke="none" 
	d="
M310.434998,308.556335 
	C306.673279,302.323700 307.677185,297.379303 312.889099,294.839996 
	C317.278870,292.701233 322.533234,294.741638 324.397034,299.387177 
	C325.869415,303.057129 324.950378,306.394775 322.088989,308.861420 
	C318.447693,312.000336 314.498016,311.679596 310.434998,308.556335 
z"/>
<path fill="#1D3026" opacity="1.000000" stroke="none" 
	d="
M346.442810,265.612549 
	C346.976807,264.070679 347.330872,262.916595 347.805725,261.368683 
	C350.649933,265.574799 349.342163,273.277557 345.739136,275.272949 
	C344.852264,275.764130 343.424957,275.279388 342.246094,275.243286 
	C342.749603,273.528076 343.253082,271.812866 343.710175,270.255737 
	C342.677551,269.859558 340.774658,269.380890 339.188965,268.393036 
	C338.584778,268.016632 338.708496,266.471832 338.500458,265.459503 
	C339.500336,265.302399 340.521454,264.936218 341.495270,265.035339 
	C343.100586,265.198700 344.675262,265.662872 346.442810,265.612549 
z"/>
<path fill="#FEBB2D" opacity="1.000000" stroke="none" 
	d="
M255.610138,303.867065 
	C255.131561,303.573395 254.896942,303.304565 254.404678,302.944092 
	C252.289978,299.824463 252.361816,296.854858 255.853363,295.525696 
	C257.257660,294.991150 260.289093,296.052368 261.170288,297.346893 
	C263.416595,300.646820 261.275116,302.786194 257.688354,304.116211 
	C256.804779,304.073578 256.329437,303.982727 255.610138,303.867065 
z"/>
<path fill="#21342A" opacity="1.000000" stroke="none" 
	d="
M280.235291,318.056335 
	C281.012878,319.065125 281.423065,320.002441 281.763367,320.964417 
	C281.782745,321.019165 281.241089,321.391357 280.941193,321.421204 
	C278.560120,321.658234 276.175568,321.907623 273.788177,321.954346 
	C273.565430,321.958710 273.315796,320.589111 273.078674,319.857452 
	C275.336700,319.235016 277.594727,318.612579 280.235291,318.056335 
z"/>
<path fill="#1D3026" opacity="1.000000" stroke="none" 
	d="
M239.955444,259.332825 
	C239.317993,258.494781 238.669449,257.704468 238.792496,257.061890 
	C239.825989,251.664658 249.345474,246.840225 253.214828,248.954453 
	C249.040604,252.346970 244.671310,255.898026 239.955444,259.332825 
z"/>
<path fill="#12271C" opacity="1.000000" stroke="none" 
	d="
M245.440247,269.957336 
	C245.628647,266.583466 247.551315,265.413910 250.081253,266.161255 
	C251.019897,266.438477 252.083817,268.744293 251.867081,269.894440 
	C251.556793,271.540894 250.123749,272.975769 249.170135,274.500977 
	C247.926178,273.112701 246.682220,271.724426 245.440247,269.957336 
z"/>
<path fill="#1D3026" opacity="1.000000" stroke="none" 
	d="
M302.584778,256.126251 
	C300.715424,255.006577 299.023682,254.223755 297.642639,253.069290 
	C296.865051,252.419235 296.599823,251.156219 296.103760,250.169357 
	C297.085236,249.827484 298.479004,248.894485 298.978882,249.243118 
	C301.532257,251.023849 303.904846,253.081177 306.199249,255.195267 
	C306.510071,255.481659 306.023865,256.633087 305.906677,257.383972 
	C304.901917,257.025177 303.897156,256.666412 302.584778,256.126251 
z"/>
<path fill="#21342A" opacity="1.000000" stroke="none" 
	d="
M298.243652,270.428101 
	C297.784607,272.318848 297.231873,273.842896 296.679138,275.366913 
	C295.843201,275.061432 294.367859,274.876831 294.283234,274.429321 
	C293.937195,272.599060 293.267029,270.217834 294.092529,268.904816 
	C295.856903,266.098541 297.163208,268.241821 298.243652,270.428101 
z"/>
</svg>