<?xml version="1.0" encoding="UTF-8"?>
<svg id="Layer_1" data-name="Layer 1" xmlns="http://www.w3.org/2000/svg" viewBox="0 0 428.61 101.08">
  <defs>
    <style>
      .cls-1 {
        fill: #231f20;
      }
    </style>
  </defs>
  <g>
    <path class="cls-1" d="M144.79,39.28c-.85,0-2.78.06-3.63.06h-5.84c-.28-1.36-.34-2.72-.34-3.74s.06-2.44.34-3.8h28.07c.28.91.45,2.33.45,3.46,0,3-1.47,4.08-4.76,4.08h-1.64c-.85,0-2.72-.06-3.57-.06h-.06c0,1.59.06,2.67.06,4.2v27.05c-1.59.28-3.29.34-4.54.34s-3.01-.06-4.54-.34v-31.24Z"/>
    <path class="cls-1" d="M187.77,54.13c2.15.79,3.52,2.78,4.37,5.22l1.7,4.82c.57,1.7,1.59,3.23,2.83,4.2-1.13,1.53-3.63,2.67-6.01,2.67-3.29,0-4.37-1.76-5.56-5.22l-2.04-5.95c-.68-1.93-1.76-3.52-4.82-3.52h-2.33v14.18c-1.53.28-3.29.34-4.54.34-1.08,0-3-.06-4.48-.34v-38.44l.4-.4c4.88-.11,9.3-.23,13.61-.23,7.88,0,13.78,3.74,13.78,12.3,0,5.5-3.69,9.13-6.92,10.38ZM175.92,49.37c1.76-.06,3.46-.11,4.2-.11,4.31,0,5.33-2.61,5.33-5.5s-1.02-5.44-5.33-5.44c-1.13,0-2.61,0-4.2-.06v11.11Z"/>
    <path class="cls-1" d="M210.05,62.36l-2.44,8.22c-1.13.28-2.44.34-3.8.34s-3.35-.23-4.42-.62l-.28-.45,12.47-38.05c1.47-.23,3.74-.34,5.27-.34s3.8.11,5.22.4l12.25,38.1c-1.25.68-3.52,1.08-5.22,1.08-2.89,0-4.31-1.02-5.44-4.93l-1.08-3.74c-.74.06-1.64.06-2.21.06h-8.05c-.68,0-1.53,0-2.27-.06ZM212.15,55.27c.74,0,1.64-.06,2.27-.06h4.14c.57,0,1.36.06,2.04.06l-.96-3.52c-.91-3.23-2.15-7.94-3.12-11.68h-.34c-.57,3.18-1.87,7.71-2.72,10.83l-1.3,4.37Z"/>
    <path class="cls-1" d="M250.25,38.14c-4.88,0-6.75,4.59-6.75,13.21,0,8.05,2.83,12.08,7.77,12.08,3.91,0,7.03-2.04,9.64-3.91,1.76,1.19,3.74,3.69,4.14,5.84-3.23,3.18-9.19,6.01-15.42,6.01-11.96,0-15.65-10.32-15.65-20.07,0-14.29,7.54-20.41,16.56-20.41s14.57,5.16,14.57,11.79c0,3.57-1.93,5.05-5.16,5.05-1.36,0-2.38-.23-3.46-.51.11-4.71-1.25-9.07-6.24-9.07Z"/>
    <path class="cls-1" d="M294.13,71.03c-3.29,0-4.42-1.7-5.5-5.22l-2.16-6.63c-1.13-3.57-2.55-4.93-5.27-4.93-.74,0-1.59.06-2.5.11v16.16c-1.47.28-3.29.34-4.54.34-1.08,0-3.06-.06-4.54-.34V31.79c1.47-.28,3.46-.34,4.54-.34,1.25,0,3.06.06,4.54.34v14.97l1.47-.06c1.42,0,1.76-.4,2.55-1.93l5.39-10.15c1.08-2.15,1.98-3.17,4.65-3.17,1.47,0,3.63.11,5.44.28l.51.62-6.92,13.04c-.85,1.7-1.87,3.06-3.17,4.14,3.86.85,5.22,3.4,6.24,6.41l2.32,7.03c.68,1.98,1.08,3.57,2.95,5.33-1.19,1.7-3.57,2.72-6.01,2.72Z"/>
    <path class="cls-1" d="M310.52,39.28c-.85,0-2.78.06-3.63.06h-5.84c-.28-1.36-.34-2.72-.34-3.74s.06-2.44.34-3.8h28.07c.28.91.45,2.33.45,3.46,0,3-1.47,4.08-4.76,4.08h-1.64c-.85,0-2.72-.06-3.57-.06h-.06c0,1.59.06,2.67.06,4.2v27.05c-1.59.28-3.29.34-4.54.34s-3-.06-4.54-.34v-31.24Z"/>
    <path class="cls-1" d="M332.74,31.79c1.47-.28,3.46-.34,4.54-.34,1.25,0,3.06.06,4.59.34v38.73c-1.53.28-3.35.34-4.59.34-1.08,0-3.06-.06-4.54-.34V31.79Z"/>
    <path class="cls-1" d="M352.13,34.52c2.55-2.1,5.73-3.57,10.77-3.57s8.22,1.47,10.83,3.57c4.71,3.97,6.07,10.66,6.07,16.61s-1.36,12.7-6.07,16.67c-2.61,2.1-5.67,3.57-10.83,3.57s-8.22-1.47-10.77-3.57c-4.76-3.97-6.07-10.72-6.07-16.67s1.3-12.64,6.07-16.61ZM362.91,64.4c6.58,0,7.43-7.31,7.43-13.27s-.85-13.21-7.43-13.21-7.37,7.26-7.37,13.21.85,13.27,7.37,13.27Z"/>
    <path class="cls-1" d="M414.73,31.79v38.56c-1.47.34-4.37.51-5.5.51s-3.29-.06-5.27-.34l-8.9-20.3c-1.3-2.89-2.44-5.84-3.23-8l-.17.06c.4,4.82.68,12.25.68,16.95v11.28c-1.47.28-3,.34-4.14.34s-2.89-.06-4.31-.34V31.96c1.42-.34,4.25-.51,5.39-.51s3.23.06,5.22.34l8.79,20.24c1.42,3.34,2.72,6.52,3.52,8.62l.23-.11c-.45-5.27-.68-12.81-.68-16.73v-6.92c0-4.03,1.59-5.5,5.05-5.5h2.95l.4.4Z"/>
  </g>
  <rect class="cls-1" x="116.19" y="11.33" width="3" height="80.28"/>
  <path class="cls-1" d="M61.88,84.52h-15.08c-.83,0-1.5-.67-1.5-1.5s.67-1.5,1.5-1.5h15.08c.83,0,1.5.67,1.5,1.5s-.67,1.5-1.5,1.5Z"/>
  <path class="cls-1" d="M59.41,91.86h-10.13c-.83,0-1.5-.67-1.5-1.5s.67-1.5,1.5-1.5h10.13c.83,0,1.5.67,1.5,1.5s-.67,1.5-1.5,1.5Z"/>
  <path class="cls-1" d="M66.15,77.48h-23.61v-2.52c0-4.39-1.52-8.6-4.29-11.87-3.11-3.67-4.88-8.34-4.98-13.15-.25-11.25,8.68-20.91,19.9-21.52,5.86-.32,11.43,1.72,15.67,5.74,4.25,4.02,6.59,9.46,6.59,15.31,0,4.85-1.68,9.58-4.74,13.32-2.97,3.64-4.54,7.85-4.54,12.17v2.52ZM45.53,74.48h17.62c.12-4.79,1.96-9.6,5.21-13.59,2.62-3.21,4.06-7.26,4.06-11.42,0-5.02-2.01-9.68-5.65-13.13-3.64-3.45-8.41-5.21-13.45-4.92-9.62.53-17.28,8.8-17.07,18.46.09,4.13,1.61,8.13,4.27,11.27,3.13,3.69,4.89,8.41,5,13.33Z"/>
  <g>
    <g id="_Radial_Repeat_" data-name="&amp;lt;Radial Repeat&amp;gt;">
      <path class="cls-1" d="M26.79,78.73c-.38,0-.77-.15-1.06-.44-.59-.59-.59-1.54,0-2.12l6.92-6.92c.59-.59,1.54-.59,2.12,0s.59,1.54,0,2.12l-6.92,6.92c-.29.29-.68.44-1.06.44Z"/>
    </g>
    <g id="_Radial_Repeat_-2" data-name="&amp;lt;Radial Repeat&amp;gt;">
      <path class="cls-1" d="M25.16,51.18h-9.78c-.83,0-1.5-.67-1.5-1.5s.67-1.5,1.5-1.5h9.78c.83,0,1.5.67,1.5,1.5s-.67,1.5-1.5,1.5Z"/>
    </g>
    <g id="_Radial_Repeat_-3" data-name="&amp;lt;Radial Repeat&amp;gt;">
      <path class="cls-1" d="M33.71,30.55c-.38,0-.77-.15-1.06-.44l-6.92-6.92c-.59-.59-.59-1.54,0-2.12.59-.59,1.54-.59,2.12,0l6.92,6.92c.59.59.59,1.54,0,2.12-.29.29-.68.44-1.06.44Z"/>
    </g>
    <g id="_Radial_Repeat_-4" data-name="&amp;lt;Radial Repeat&amp;gt;">
      <path class="cls-1" d="M54.34,22c-.83,0-1.5-.67-1.5-1.5v-9.78c0-.83.67-1.5,1.5-1.5s1.5.67,1.5,1.5v9.78c0,.83-.67,1.5-1.5,1.5Z"/>
    </g>
    <g id="_Radial_Repeat_-5" data-name="&amp;lt;Radial Repeat&amp;gt;">
      <path class="cls-1" d="M74.98,30.55c-.38,0-.77-.15-1.06-.44-.59-.59-.59-1.54,0-2.12l6.92-6.92c.59-.59,1.54-.59,2.12,0s.59,1.54,0,2.12l-6.92,6.92c-.29.29-.68.44-1.06.44Z"/>
    </g>
    <g id="_Radial_Repeat_-6" data-name="&amp;lt;Radial Repeat&amp;gt;">
      <path class="cls-1" d="M93.3,51.18h-9.78c-.83,0-1.5-.67-1.5-1.5s.67-1.5,1.5-1.5h9.78c.83,0,1.5.67,1.5,1.5s-.67,1.5-1.5,1.5Z"/>
    </g>
    <g id="_Radial_Repeat_-7" data-name="&amp;lt;Radial Repeat&amp;gt;">
      <path class="cls-1" d="M81.89,78.73c-.38,0-.77-.15-1.06-.44l-6.92-6.92c-.59-.59-.59-1.54,0-2.12s1.54-.59,2.12,0l6.92,6.92c.59.59.59,1.54,0,2.12-.29.29-.68.44-1.06.44Z"/>
    </g>
  </g>
  <path class="cls-1" d="M48.38,60.02c-.29,0-.58-.08-.84-.26-3.36-2.27-5.36-6.04-5.36-10.09,0-6.71,5.46-12.16,12.16-12.16,3.95,0,7.67,1.93,9.95,5.16.48.68.32,1.61-.36,2.09-.68.48-1.61.31-2.09-.36-1.72-2.43-4.52-3.89-7.49-3.89-5.05,0-9.16,4.11-9.16,9.16,0,3.05,1.51,5.89,4.04,7.6.69.46.87,1.4.4,2.08-.29.43-.76.66-1.24.66Z"/>
</svg>